<svg width="165" height="148" viewBox="0 0 165 148" fill="none" xmlns="http://www.w3.org/2000/svg">
<path fill-rule="evenodd" clip-rule="evenodd" d="M14.6695 107.729C15.0816 107.808 17.2029 108.3 19.3866 108.812C27.8868 110.804 32.9572 111.796 34.144 111.695C35.089 111.628 35.6705 111.194 35.936 110.391C36.241 109.467 35.7674 108.666 34.4452 107.85C33.3349 107.161 32.9718 107.003 26.103 103.843C23.6199 102.7 21.4848 101.692 21.3353 101.585C21.1859 101.479 22.8624 101.502 25.0663 101.604C35.3677 102.124 45.1776 101.059 54.596 98.3849C58.2425 97.3324 65.7856 94.3997 68.7302 92.8878C75.1086 89.5704 80.6201 85.2459 85.5326 79.6616C86.5122 78.5817 87.3767 77.7103 87.4599 77.7378C87.5639 77.7722 88.7307 78.2903 90.0639 78.8634C98.0255 82.3465 107.337 83.279 116.823 81.5189C126.624 79.7114 133.908 76.2378 144.372 68.3717C154.831 60.5227 160.885 53.0204 161.47 47.126C161.76 44.4337 161.119 42.9513 159.425 42.3538C158.266 41.952 158.075 42.2494 158.968 43.0375C159.846 43.8016 160.064 44.3288 159.966 45.6049C159.496 52.1256 150.895 61.4038 136.902 70.456C129.588 75.2092 123.792 77.6001 116.249 78.9966C107.547 80.6174 99.1015 79.8571 91.785 76.7957C88.4794 75.4194 88.6877 75.6968 89.7401 73.9772C93.8782 67.2456 94.9453 59.405 92.3783 54.7451C89.2013 49.0681 81.0793 47.2579 76.7752 51.2794C74.8724 53.0595 73.7294 56.3803 73.9337 59.4633C74.284 64.3394 76.0432 68.3722 79.3762 71.9006C80.5572 73.1441 83.1323 75.2653 83.673 75.444C84.1306 75.5951 83.9383 75.9678 82.672 77.4271C79.3372 81.2377 74.9951 85.0949 71.3012 87.4783C65.2544 91.3984 55.9639 95.0815 47.8049 96.8056C40.7891 98.2815 33.2637 98.9252 26.2059 98.6423C23.0381 98.5253 17.2292 97.9533 17.0872 97.7546C17.0626 97.6896 17.8028 97.1945 18.7282 96.6277C23.6291 93.7326 26.6738 90.6607 28.1511 87.1658C28.9518 85.2303 29.0568 84.5633 28.4994 84.6447C28.3784 84.6616 27.4815 85.3516 26.4979 86.1646C23.9302 88.351 17.3878 91.9556 8.24551 96.2378C6.44349 97.0839 4.61144 98.0909 4.09226 98.5453C2.00606 100.322 2.30562 102.488 4.84987 104.144C5.60843 104.641 6.76574 105.118 9.88 106.166C12.0942 106.935 14.263 107.632 14.6695 107.729ZM8.81411 101.85C8.77431 101.761 9.33714 101.453 10.0777 101.167L11.4265 100.645L14.6361 102.312C16.412 103.221 18.2711 104.158 18.7741 104.381C19.8937 104.902 20.433 105.365 19.6729 105.152C19.3817 105.056 17.9486 104.715 16.4739 104.361C13.9046 103.759 9.01109 102.161 8.81411 101.85ZM83.262 71.7996C79.6725 68.6985 77.7454 64.8947 77.4144 60.3095C77.0084 54.6944 80.5024 51.2398 85.1103 52.7238C87.5287 53.5036 89.202 55.4218 89.7119 57.9989C90.1989 60.4356 90.0298 62.6935 89.0663 65.9598C88.2553 68.7643 87.673 70.1082 86.2247 72.6074L85.6458 73.5921L84.9496 73.1156C84.5524 72.8516 83.8012 72.2622 83.262 71.7996Z" fill="#7A4330"/>
</svg>
