<svg viewBox="0 0 320 242" fill="none" xmlns="http://www.w3.org/2000/svg">
    <path d="M285.88 0.094049C285.55 0.148941 284.801 0.236768 284.229 0.302639C279.947 0.785688 272.936 4.11214 264.638 9.59037C261.479 11.6763 258.716 13.7731 251.87 19.2294C250.769 20.1077 244.65 24.3453 241.315 26.541C239.103 27.9902 238.871 28.1219 237.617 28.5171C233.599 29.8236 230.463 30.3286 229.032 29.9004C227.392 29.3954 226.038 29.2527 223.088 29.2417C220.579 29.2417 217.519 29.4393 217.673 29.593C217.728 29.6479 219.83 29.9992 222.043 30.3395C224.101 30.6469 225.455 31.108 228.041 32.3925C230.463 33.6001 232.268 34.9175 236.076 38.233C236.989 39.0344 238.178 40.0445 238.717 40.4836C239.796 41.3728 240.577 42.1413 242.173 43.8759C242.735 44.4907 243.23 44.9847 243.252 44.9518C243.318 44.8969 242.834 43.9308 242.184 42.8549C241.7 42.0425 241.227 40.7141 241.029 39.6163C240.941 39.0893 241.403 37.5414 242.074 36.1252C243.846 32.4254 246.598 29.4393 255.282 21.8313C256.768 20.5358 258.496 19.0098 259.134 18.439C261.49 16.3201 271.417 10.1064 276.69 7.46056C278.847 6.3737 280.234 5.8138 282.171 5.2539C283.668 4.82574 286.155 4.26584 286.573 4.26584C287.069 4.26584 287.806 4.66106 288.246 5.16607C289.204 6.28587 290.404 9.22808 291.515 13.2132L291.878 14.5306V19.1965C291.867 24.0819 291.746 26.1458 291.273 29.4283C291.086 30.7018 290.921 31.2947 290.238 33.2159C288.466 38.2001 287.179 41.0654 285.462 43.8759C284.988 44.6444 284.108 46.1594 283.514 47.2463C280.256 53.2185 276.194 59.4543 271.506 65.69C269.469 68.4017 268.479 69.5983 267.246 70.8279C265.375 72.6942 263.471 74.1544 261.226 75.4388C259.784 76.2622 258.815 76.6574 257.781 76.8331L257.065 76.9648L256.999 77.4149C256.966 77.6674 256.889 78.6116 256.823 79.5228C256.416 85.8024 256.416 87.9652 256.812 91.4344C256.922 92.4883 257.043 93.6959 257.076 94.1021L257.131 94.8486L256.834 94.7937C254.291 94.2668 248.359 93.3226 244.958 92.9055C243.648 92.7518 242.515 92.5981 242.438 92.5871C242.361 92.5542 242.482 92.0711 242.801 91.1489C243.076 90.3804 243.417 89.1509 243.56 88.4043C243.813 87.1418 243.901 86.9003 244.936 84.8363C245.552 83.6177 246.026 82.6077 246.004 82.5858C245.861 82.4321 241.469 85.0449 240.721 85.7256C239.554 86.7905 237.507 89.3704 236.604 90.9074C236.329 91.3795 236.043 91.7966 235.977 91.8515C235.911 91.9064 235.074 91.8845 234.095 91.8076C230.297 91.5222 226.445 91.4014 222.362 91.4563L218.223 91.5112L217.651 90.7866C217.343 90.3914 216.881 89.8974 216.639 89.6888C215.186 88.4921 213.061 87.7895 212.401 88.3055C212.148 88.5031 212.082 88.4482 213.788 89.568C214.426 89.9742 215.252 90.6329 215.637 91.0172L216.33 91.7198L214.371 91.9613C210.948 92.3785 206.601 93.4105 205.665 94.0253C205.269 94.2887 205.423 94.3107 206.039 94.0802C206.898 93.7508 209.044 93.3007 211.388 92.9713C213.821 92.62 216.639 92.3565 216.892 92.4553C217.046 92.5102 218.741 94.9145 218.741 95.0682C218.741 95.1011 217.321 95.1231 215.582 95.1231C212.115 95.1231 210.31 95.2768 208.131 95.7708C206.887 96.0563 206.226 96.3637 207.184 96.2209C209.429 95.8696 213.414 95.7489 216.815 95.9245L219.225 96.0453L219.478 96.3417L219.742 96.6491L219.709 96.3746C219.676 96.1002 219.687 96.1002 220.447 96.1331C221.779 96.188 226.291 96.5832 228.867 96.8796C231.354 97.1541 235.151 97.6701 235.217 97.736C235.349 97.8677 232.565 99.5803 230.364 100.722L228.812 101.524L225.73 100.492C219.808 98.5044 215.593 97.4835 211.543 97.0333C209.892 96.8577 207.173 96.7699 206.854 96.9016C206.634 96.9785 206.766 97.0224 207.569 97.0773C209.892 97.2639 213.458 97.8787 216.484 98.6362C220.546 99.6462 227.678 101.952 227.623 102.226C227.59 102.38 228.261 102.621 228.779 102.621C229.494 102.632 236.439 105.366 241.997 107.814C244.287 108.824 244.496 108.945 244.43 109.154C244.265 109.659 242.713 113.226 242.228 114.182C241.051 116.531 240.5 117.321 239.114 118.705C238.112 119.693 237.76 119.989 237.65 119.901C237.573 119.846 236.67 119.1 235.636 118.266C229.549 113.281 222.67 108.22 218.411 105.596C217.893 105.278 217.453 105.004 217.431 104.982C217.409 104.96 217.772 104.444 218.245 103.84C218.708 103.225 219.071 102.709 219.049 102.687C219.027 102.665 218.587 102.918 218.08 103.258C217.563 103.587 216.947 103.961 216.694 104.07L216.242 104.268L214.448 103.291C212.324 102.138 210.123 101.117 208.461 100.524C207.129 100.052 206.37 99.9865 207.404 100.437C208.934 101.106 214.569 104.158 214.988 104.554C215.12 104.674 215.087 104.729 214.767 104.861C214.558 104.949 213.909 105.223 213.315 105.476L212.236 105.937L209.958 103.752C205.698 99.6572 203.761 98.0873 203.332 98.3508C203.156 98.4605 202.88 98.1861 208.042 103.159C209.748 104.817 211.146 106.2 211.146 106.255C211.146 106.31 210.684 106.453 210.134 106.596C208.208 107.057 204.41 106.991 202.132 106.464C201.329 106.277 201.174 106.266 201.042 106.398C200.8 106.65 201.285 107.002 203.09 107.88C205.368 109 205.984 109.143 208.45 109.154C210.486 109.154 211.598 108.989 212.742 108.517C212.951 108.418 213.193 108.374 213.271 108.418C213.425 108.484 219.577 114.796 222.56 117.947C226.027 121.603 232.521 128.596 232.576 128.728C232.609 128.805 232.356 129.486 232.014 130.254C230.595 133.438 229.659 136.325 228.977 139.684C228.316 142.901 228.305 142.857 229.175 141.177C229.604 140.365 230.022 139.662 230.121 139.608C230.22 139.553 230.65 139.059 231.079 138.499C232.631 136.468 234.194 135.095 236.681 133.569C238.233 132.625 239.873 131.692 239.928 131.736C239.95 131.758 239.565 132.12 239.081 132.548C234.579 136.446 231.354 142.539 230.617 148.522C230.33 150.871 230.76 153.144 231.42 152.738C231.629 152.606 232.025 151.574 232.708 149.345C234.898 142.352 236.714 139.256 243.109 131.626C245.409 128.871 245.894 128.322 245.993 128.322C246.103 128.322 250.153 132.065 255.722 137.313C258.859 140.266 258.65 140.036 253.576 134.909C247.313 128.585 244.144 125.544 240.941 122.767C240.655 122.514 240.423 122.284 240.423 122.24C240.423 122.207 240.842 121.515 241.337 120.714C243.472 117.343 245.497 113.413 245.321 112.974C245.288 112.886 245.387 112.436 245.53 111.975C245.673 111.514 245.861 110.833 245.927 110.449C246.004 110.076 246.114 109.768 246.169 109.768C246.433 109.768 255.92 114.544 256.207 114.818C256.493 115.104 255.106 118.255 253.081 121.899C251.342 125.061 251.375 124.973 251.727 124.699C253.95 122.964 255.887 120.494 257.439 117.398C257.836 116.608 258.21 115.96 258.265 115.938C258.353 115.905 258.947 116.202 262.216 117.925C262.788 118.222 263.218 118.419 263.152 118.353C263.042 118.244 259.685 116.311 258.881 115.905C258.65 115.784 258.441 115.62 258.408 115.532C258.375 115.455 258.65 114.742 259.013 113.951C259.85 112.151 260.466 110.317 260.862 108.484C261.126 107.221 261.159 106.859 261.159 104.828C261.17 102.797 261.126 102.358 260.807 100.327C260.598 99.0863 260.334 97.6152 260.213 97.0553C260.092 96.4844 260.015 96.0124 260.037 95.9904C260.081 95.9465 260.356 96.0014 267.114 97.3078C271.12 98.0763 272.21 98.2519 271.406 98.0104C271.23 97.9555 268.622 97.3627 265.628 96.693C262.634 96.0233 260.103 95.4634 260.015 95.4305C259.905 95.4085 259.762 95.1011 259.652 94.662L259.453 93.9484L260.235 90.9623C261.721 85.2755 262.7 82.2015 263.669 80.1046C264.087 79.1934 264.164 79.1056 265.287 78.1724C269.546 74.6154 274.092 69.6971 277.735 64.7019C282.281 58.4552 286.672 50.7594 288.202 46.3131C288.444 45.6215 288.676 45.0287 288.731 44.9957C288.874 44.9079 291.427 37.201 291.977 35.2249C293.882 28.3415 294.696 21.2824 294.245 15.6175C294.036 13.0376 293.76 11.4347 292.517 5.63814C292.01 3.25583 291.515 1.60907 291.207 1.27972C290.822 0.884494 289.798 0.357531 289.017 0.148941C288.334 -0.0267135 286.914 -0.0486703 285.88 0.094049ZM241.095 88.9093C240.633 90.1828 239.741 92.137 239.587 92.2248C239.532 92.2577 238.982 92.2248 238.365 92.1589L237.232 92.0382L239.334 89.8644C240.5 88.6678 241.458 87.7127 241.48 87.7237C241.502 87.7456 241.326 88.2836 241.095 88.9093ZM228.536 92.3126C231.651 92.4553 235.47 92.7079 235.537 92.7847C235.57 92.8176 235.459 93.0921 235.305 93.4105C235.151 93.7288 235.03 94.0033 235.052 94.0253C235.074 94.0472 235.371 93.7947 235.691 93.4654L236.285 92.8616L236.956 92.8725C238.068 92.8945 239.026 93.0152 239.07 93.147C239.169 93.4434 236.835 96.5613 236.197 96.9785C235.977 97.1321 235.735 97.1102 233.698 96.7699C229.989 96.1441 224.596 95.5183 221.327 95.3317C219.467 95.2219 219.577 95.2768 219.423 94.4424C219.346 94.0472 219.159 93.4324 219.016 93.0811C218.686 92.3017 218.697 92.3456 218.939 92.2797C219.313 92.1809 226.016 92.2028 228.536 92.3126ZM245.706 93.7508C251.727 94.4754 257.12 95.3317 257.263 95.6062C257.571 96.177 257.924 100.261 257.924 103.214C257.924 105.629 257.792 107.353 257.428 109.505C257.153 111.119 256.515 114.127 256.394 114.335C256.35 114.423 255.975 114.258 255.282 113.863C253.246 112.689 250.362 111.108 248.337 110.054L246.301 109L246.345 106.782C246.367 105.553 246.367 104.576 246.334 104.608C246.301 104.641 245.949 105.454 245.541 106.42C245.145 107.386 244.793 108.187 244.782 108.209C244.76 108.231 243.681 107.748 242.394 107.155C239.598 105.86 236.175 104.389 233.379 103.28L231.354 102.479L233.027 102.072C233.941 101.842 234.931 101.556 235.206 101.436C236.043 101.062 237.044 100.283 237.98 99.2729L238.86 98.3288L239.895 98.5154C240.456 98.6142 242.669 99.0424 244.815 99.4596C246.95 99.8877 248.755 100.206 248.832 100.184C248.898 100.162 248.48 100.03 247.908 99.8987C246.356 99.5364 239.631 97.9116 239.4 97.8457C239.235 97.7909 239.257 97.725 239.576 97.3298C240.225 96.5283 240.842 95.5513 241.425 94.4095L241.986 93.2897L242.449 93.3556C242.691 93.3885 244.166 93.5642 245.706 93.7508ZM218.455 106.727C223.055 109.757 230.474 115.268 236.56 120.165C236.923 120.45 237.221 120.725 237.221 120.769C237.232 120.813 236.868 121.405 236.428 122.086C235.371 123.7 234.579 125.05 233.577 126.971L232.763 128.53L230.165 125.489C225.697 120.253 221.294 115.4 216.385 110.284C215.131 108.967 214.107 107.88 214.129 107.858C214.151 107.847 214.492 107.606 214.888 107.331C215.285 107.057 215.879 106.574 216.209 106.266C216.539 105.97 216.837 105.717 216.859 105.706C216.881 105.706 217.596 106.167 218.455 106.727ZM241.436 124.26C243.527 126.038 245.706 127.992 245.706 128.08C245.706 128.311 244.606 128.673 243.406 128.827C240.831 129.156 238.255 129.87 236.252 130.803C235.459 131.176 235.184 131.253 235.074 131.165C234.986 131.099 234.92 131.001 234.92 130.946C234.92 130.847 237.661 126.455 239.07 124.282C239.51 123.59 239.928 123.052 239.983 123.074C240.038 123.096 240.699 123.623 241.436 124.26ZM234.975 131.275C235.008 131.341 234.942 131.44 234.821 131.495C234.513 131.67 234.458 131.648 234.59 131.396C234.722 131.154 234.865 131.11 234.975 131.275Z"
          fill="currentColor"/>
    <path d="M139.179 7.66919C138.409 7.83386 137.341 8.38278 136.769 8.9317C135.778 9.85389 135.217 11.4238 135.206 13.2682C135.206 14.355 135.503 16.913 135.635 17.0008C135.723 17.0557 136.186 18.6586 137.066 22.0509C137.517 23.7745 137.815 24.7626 139.322 29.4613C139.785 30.8995 140.159 32.14 140.159 32.2059C140.159 32.2608 139.576 32.5353 138.86 32.7988C136.582 33.666 133.731 34.8627 131.277 36.0044C127.303 37.8378 124.64 39.265 117.596 43.327L112.929 46.0277L111.322 46.2363C109.572 46.4559 109.627 46.4559 105.599 45.9399C104.432 45.7862 102.924 45.5008 102.066 45.2812C101.24 45.0616 100.074 44.8091 99.4792 44.7213C98.3015 44.5456 96.6836 44.5017 96.6836 44.6444C96.6836 44.6993 97.5091 44.9958 98.5327 45.3141C102.825 46.6645 106.006 47.9819 107.679 49.0907C110.86 51.2205 113.997 54.1957 116.066 57.072C116.605 57.8295 117.574 59.1579 118.212 60.0362C118.851 60.9144 119.786 62.2538 120.281 63.0113C121.118 64.2738 121.448 64.691 121.448 64.4714C121.448 64.4275 121.206 63.9335 120.898 63.3626C120.006 61.7049 118.641 58.0271 118.135 55.9193C117.75 54.3054 117.937 52.9222 118.784 50.9351C119.489 49.3103 121.129 47.0377 123.099 44.9628C124.42 43.5576 127.502 41.7132 133.72 38.6283C138.244 36.3777 141.05 35.0823 141.161 35.203C141.205 35.2469 141.557 36.1142 141.953 37.1462C145.277 45.8301 146.245 48.0258 148.359 51.6926C149.305 53.3284 151.947 58.587 151.628 58.1918L151.43 57.9283L151.11 59.125C150.945 59.7727 150.241 61.8696 149.547 63.7688C147.951 68.1382 146.697 71.827 145.926 74.4179C145.508 75.8231 144.925 77.3491 144.055 79.3801C142.856 82.1686 141.59 85.3085 141.227 86.3953C141.061 86.8893 141.061 86.9772 141.37 88.4263C141.766 90.3366 142.305 93.7179 142.228 93.7948C142.195 93.8277 141.843 93.8826 141.436 93.9265C140.72 93.9924 140.709 93.9814 140.709 93.7289C140.709 93.5862 140.632 92.7738 140.544 91.9284C140.456 91.0831 140.379 90.3036 140.379 90.1938C140.379 90.095 140.335 90.0072 140.28 90.0072C140.236 90.0072 140.126 90.3915 140.049 90.8525C139.972 91.3246 139.818 91.9065 139.697 92.137C139.576 92.3785 139.455 92.9055 139.422 93.3117C139.388 93.7179 139.322 94.0912 139.289 94.1461C139.256 94.201 138.189 94.4096 136.912 94.6072C132.994 95.211 129.031 95.9904 122.108 97.5384C118.443 98.3618 115.428 99.0534 115.406 99.0754C115.306 99.1632 115.736 99.0973 120.424 98.1971C129.131 96.5174 132.388 95.9465 137.011 95.2768C138.222 95.1012 139.234 94.9804 139.256 95.0024C139.355 95.1012 138.86 97.9226 138.112 101.425C137.561 104.016 136.439 107.32 135.426 109.329L134.986 110.207H131.376C127.755 110.207 124.508 110.372 121.745 110.702C120.942 110.8 120.215 110.899 120.116 110.932C119.984 110.965 119.731 110.68 119.203 109.889C118.245 108.451 117.387 107.781 117.189 108.297C117.156 108.385 117.332 109.088 117.574 109.856C117.827 110.614 118.014 111.25 118.003 111.25C117.992 111.261 117.189 111.459 116.22 111.69C115.251 111.909 114.041 112.249 113.523 112.425C112.566 112.765 111.487 113.259 111.564 113.336C111.586 113.358 112.093 113.216 112.698 113.007C113.898 112.601 116.836 111.975 117.728 111.931L118.289 111.909L118.531 112.634C118.674 113.04 118.818 113.523 118.862 113.71C118.928 114.039 118.928 114.05 118.542 114.05C117.112 114.05 112.643 114.972 112.885 115.214C112.918 115.247 113.358 115.192 113.865 115.104C114.965 114.906 117.101 114.709 118.278 114.709H119.126L119.236 115.115C119.489 116.158 119.544 116.07 118.773 115.982C116.209 115.708 112.764 115.664 112.918 115.916C112.94 115.96 113.578 116.026 114.316 116.059C115.846 116.136 119.346 116.63 119.511 116.795C119.566 116.849 119.632 117.563 119.665 118.375C119.72 120.088 119.621 121.34 119.434 121.252C119.357 121.23 118.531 120.857 117.596 120.439C115.747 119.605 113.622 118.847 113.27 118.902C113.149 118.924 113.711 119.232 114.591 119.627C115.428 120 116.825 120.692 117.706 121.175C119.522 122.152 119.478 122.064 118.906 123.228C118.311 124.425 118.454 124.468 116.385 122.536C113.457 119.792 111.168 117.881 110.232 117.409C109.957 117.267 109.836 117.245 109.737 117.343C109.605 117.475 109.484 117.365 112.368 119.978C114.558 121.965 117.42 124.71 117.464 124.875C117.508 125.061 116.528 125.533 115.45 125.852C113.766 126.335 112.28 126.335 108.35 125.852L107.965 125.808L108.295 126.082C108.758 126.456 110.343 127.257 111.3 127.597C113.964 128.541 116.935 128.344 118.784 127.103C119.049 126.928 119.313 126.763 119.357 126.752C119.412 126.741 119.973 127.246 120.623 127.872L121.789 129.024L121.481 129.189C121.316 129.277 120.479 129.639 119.632 129.991L118.091 130.616L118.95 130.627C119.412 130.627 119.797 130.671 119.797 130.726C119.797 130.924 120.832 131.066 122.362 131.066H123.957L127.546 134.7C129.516 136.709 131.134 138.367 131.134 138.411C131.134 138.444 130.947 138.674 130.726 138.927C129.395 140.343 129.351 140.409 130.286 139.575C130.814 139.092 131.288 138.685 131.343 138.663C131.387 138.653 132.223 139.476 133.203 140.497L134.986 142.363L134.414 143.494C133.918 144.449 133.291 145.459 132.355 146.788C132.212 146.985 132.278 146.963 132.851 146.678C133.841 146.184 134.821 145.393 135.569 144.493L136.252 143.692L137.33 144.767L138.42 145.854L138.53 147.161C138.783 150.114 137.958 155.669 136.681 159.632C135.822 162.267 135.008 163.914 133.544 165.923C133.137 166.494 132.818 166.966 132.851 166.966C132.895 166.966 133.258 166.79 133.665 166.571C138.079 164.254 141.414 156.503 141.381 148.599L141.37 147.293L141.986 148.16C142.789 149.28 143.846 150.443 144.54 150.992C144.848 151.234 145.101 151.486 145.112 151.563C145.112 151.629 144.947 152.277 144.738 152.99C144.528 153.704 144.264 154.802 144.132 155.438C143.846 156.888 143.329 160.368 143.373 160.511C143.395 160.576 143.901 159.468 144.506 158.062C146.455 153.44 147.577 151.278 149.415 148.577C150.692 146.7 151.518 145.657 151.694 145.723C151.859 145.778 155.458 148.983 155.458 149.071C155.458 149.104 155.095 149.324 154.665 149.565C150.747 151.75 146.752 155.493 144.914 158.71C144.198 159.94 143.626 161.334 143.351 162.487C142.955 164.122 143.12 166.055 143.648 165.956C143.78 165.934 144.231 165.165 144.958 163.76C146.135 161.477 147.324 159.665 149.074 157.415C150.923 155.054 155.777 149.488 155.964 149.532C156.03 149.554 157.351 150.707 158.881 152.101C160.422 153.495 161.875 154.802 162.117 154.999C162.678 155.46 160.587 153.386 158.11 151.025C156.911 149.872 156.228 149.137 156.272 149.049C156.305 148.972 156.426 148.786 156.525 148.632L156.724 148.357L156.305 148.61L155.887 148.851L153.961 147.018C152.904 146.008 152.046 145.152 152.046 145.108C152.046 144.921 155.227 141.99 156.36 141.134C160.422 138.093 165.144 135.908 171.021 134.349C173.255 133.756 173.707 133.57 173.806 133.174C173.938 132.614 173.046 132.164 171.637 132.076C170.14 132 167.081 132.538 164.989 133.262C164.626 133.383 164.263 133.482 164.175 133.482C164.076 133.482 162.568 132.702 160.807 131.758C159.046 130.814 157.142 129.793 156.581 129.497C156.019 129.2 155.568 128.915 155.59 128.86C155.656 128.673 164.494 119.232 167.455 116.18L168.963 114.643L171.428 115.06C172.782 115.29 173.993 115.466 174.114 115.455C174.235 115.433 173.222 115.203 171.857 114.939C170.493 114.676 169.348 114.423 169.304 114.39C169.26 114.346 171.219 112.293 173.651 109.823L178.087 105.322L178.802 105.882C180.354 107.112 181.169 107.452 183.304 107.781C184.119 107.902 184.79 107.99 184.812 107.979C184.823 107.957 184.141 107.474 183.271 106.914C181.708 105.882 179.782 104.158 179.782 103.807C179.782 103.719 180.751 102.742 181.917 101.633C183.92 99.778 184.273 99.3937 184.141 99.251C183.92 99.0315 182.633 99.9427 180.553 101.787C179.815 102.446 179.199 102.962 179.177 102.94C179.078 102.819 178.791 102.182 178.791 102.061C178.791 101.974 179.221 101.71 179.76 101.48C180.883 100.975 180.751 100.854 179.496 101.249C178.725 101.502 178.615 101.513 178.505 101.37C178.351 101.161 177.955 99.6133 177.856 98.8338C177.757 98.1532 177.746 98.1532 179.265 98.0654C181.378 97.9226 181.103 97.7689 178.736 97.747H177.746L177.713 97.2749L177.68 96.8138L178.098 96.8687C179.573 97.0553 180.575 97.1542 180.63 97.1102C180.707 97.0224 179.749 96.748 178.604 96.5284L177.658 96.3418L177.724 95.2988C177.768 94.7279 177.823 94.2339 177.856 94.201C177.944 94.1131 180.255 94.6072 181.114 94.8926C181.554 95.0463 181.939 95.1451 181.961 95.1122C182.082 94.9914 180.519 94.3766 179.254 94.0473L177.889 93.685L177.966 93.0263C177.999 92.664 178.131 91.9833 178.23 91.5222C178.34 91.0502 178.406 90.644 178.373 90.611C178.34 90.5781 178.219 90.5561 178.109 90.5561C177.845 90.5561 177.383 91.2258 176.854 92.3566C176.579 92.9714 176.359 93.3007 176.249 93.3007C176.15 93.3007 175.413 93.2019 174.598 93.0812C173.431 92.9055 173.079 92.8067 172.936 92.6311C172.551 92.17 170.845 89.2387 170.273 88.0311C168.401 84.0899 167.422 79.3362 167.136 72.826C167.026 70.312 166.96 69.8948 166.585 69.6972C166.343 69.5764 166.178 69.6752 165.738 70.301L165.496 70.6194L163.867 69.8509C161.82 68.8957 160.642 68.2041 159.222 67.1282C158.32 66.4476 158.044 66.1731 157.813 65.723C157.384 64.8776 156.614 62.8466 156.129 61.2658C155.601 59.5531 155.392 59.0152 154.731 57.7087C154.104 56.4682 151.969 52.4611 150.483 49.7384C148.359 45.8631 146.268 41.2302 144.617 36.6961C144.088 35.2579 143.142 32.7878 142.514 31.2179C141.898 29.6479 141.128 27.573 140.819 26.6069C140.511 25.6408 139.763 23.3683 139.157 21.5569C138.233 18.7464 137.506 16.1335 137.253 14.7173C137.165 14.2013 137.385 12.862 137.649 12.357C137.98 11.6983 138.695 10.9956 139.322 10.6992C139.862 10.4357 141.304 10.0844 141.832 10.0844C142.25 10.0844 149.856 13.5536 152.816 15.1016C158.551 18.0987 161.941 20.481 170.041 27.1998C171.681 28.5501 173.74 30.2188 174.62 30.9105C176.678 32.4914 177.57 33.6441 179.155 36.7729C179.749 37.9476 179.925 38.4087 180.013 39.0674C180.178 40.1653 180.068 42.5256 179.782 44.1724C179.573 45.369 179.485 45.6105 178.858 46.8072C178.098 48.2344 177.328 49.936 177.394 50.0129C177.416 50.0348 178.549 48.2124 179.903 45.9619C182.523 41.6034 183.821 39.5944 184.79 38.3977C185.56 37.4536 186.947 36.4106 189.908 34.5663C192.098 33.205 192.395 33.0513 193.815 32.5792C195.433 32.0412 200.529 30.8446 202.4 30.5701C204.282 30.2847 207.188 30.0761 211.359 29.9005C213.572 29.8126 215.388 29.7138 215.41 29.6919C215.465 29.637 214.573 29.4394 213.594 29.2966C209.907 28.7477 208.718 28.616 206.825 28.5282C204.414 28.4074 201.421 28.5282 199.726 28.8026C199.153 28.8904 197.844 29.1759 196.809 29.4174C192.957 30.3396 192.197 30.3725 188.95 29.7248C186.419 29.2308 184.614 28.7367 182.809 28.0671C180.993 27.3974 180.486 27.1119 178.01 25.3334C171.956 20.997 166.717 17.8791 159.2 14.1025C152.464 10.7212 148.535 9.03051 145.882 8.38278C145.31 8.24006 144.462 8.02049 144.011 7.88875C143.34 7.69114 142.845 7.63625 141.425 7.60332C140.456 7.59234 139.444 7.61429 139.179 7.66919ZM154.049 62.4514C154.566 63.3846 155.15 64.6251 155.348 65.196C156.503 68.5115 157.857 70.9597 159.431 72.5296C160.246 73.353 160.983 73.869 162.359 74.5716C163.9 75.362 164.208 75.6255 164.659 76.5148C165.298 77.7882 165.474 78.6885 165.474 80.6756C165.474 85.8464 166.475 88.6788 169.293 91.5332L170.317 92.5652L169.293 92.4883C168.743 92.4554 166.85 92.3895 165.088 92.3566C159.662 92.2358 152.09 92.675 144.793 93.5313C143.747 93.652 142.856 93.7289 142.823 93.696C142.789 93.663 142.944 93.0263 143.164 92.2907C143.384 91.5442 143.692 90.4244 143.835 89.7876C143.978 89.1509 144.495 87.1748 144.98 85.3963C145.464 83.6178 145.981 81.6087 146.146 80.95C147.654 74.5716 147.896 73.6604 148.689 71.3988C149.657 68.5993 151.132 63.9664 151.881 61.3206L152.409 59.4763L152.761 60.113C152.959 60.4643 153.532 61.5183 154.049 62.4514ZM170.603 93.2898L171.483 93.3776L173.167 94.6072C174.092 95.2878 174.873 95.8258 174.895 95.8038C174.906 95.7819 174.631 95.3098 174.268 94.7499C173.916 94.201 173.618 93.685 173.618 93.6301C173.618 93.5642 173.729 93.5423 173.872 93.5642C174.004 93.5971 174.554 93.674 175.104 93.7399C175.644 93.8057 176.106 93.8826 176.128 93.9045C176.15 93.9265 176.051 94.4096 175.908 94.9914L175.644 96.0344L171.241 96.0892C167.994 96.1222 166.2 96.1881 164.373 96.3527C158.342 96.9126 153.301 97.6372 148.744 98.6253C147.236 98.9546 141.436 100.349 140.885 100.514C140.676 100.568 140.676 100.492 140.742 97.6921C140.786 96.1002 140.83 94.7938 140.852 94.7718C140.896 94.7279 146.51 94.1131 148.744 93.9155C152.244 93.5862 156.448 93.3227 160.741 93.147C162.249 93.0812 169.634 93.1909 170.603 93.2898ZM175.413 97.3518C175.39 97.6811 175.368 97.9556 175.346 97.9775C175.324 97.9995 174.818 98.0873 174.213 98.1751C169.568 98.8778 164.56 100.283 157.604 102.852C152.244 104.828 145.992 107.518 141.425 109.79C140.159 110.427 140.082 110.449 139.466 110.394C139.113 110.361 138.805 110.317 138.783 110.295C138.761 110.273 138.893 109.834 139.069 109.329C139.774 107.364 140.346 104.532 140.588 101.886C140.643 101.326 140.709 100.843 140.753 100.799C140.929 100.612 149.977 98.9546 153.697 98.4167C160.444 97.4506 169.326 96.726 174.169 96.748L175.435 96.7589L175.413 97.3518ZM175.413 99.8548C175.446 100.601 175.556 101.304 175.699 101.754C175.82 102.149 175.93 102.523 175.93 102.577C175.93 102.643 175.644 102.83 175.302 103.006C171.549 104.817 166.42 108.045 161.192 111.887L160.169 112.645L157.615 112.249C154.621 111.788 152.442 111.503 149.569 111.196C147.302 110.954 142.503 110.537 141.986 110.537C141.524 110.537 141.678 110.427 143.131 109.768C152.046 105.684 163.228 101.535 170.107 99.767C172.243 99.2181 174.631 98.6911 175.005 98.6911L175.346 98.6802L175.413 99.8548ZM176.865 104.049L177.383 104.751L175.192 106.958C173.013 109.165 171.318 110.899 169.282 113.051L168.203 114.193L164.912 113.545C163.107 113.183 161.621 112.875 161.621 112.842C161.632 112.667 168.897 107.66 171.417 106.091C173.222 104.96 176.172 103.28 176.271 103.313C176.315 103.335 176.579 103.664 176.865 104.049ZM134.546 111.031C134.546 111.217 132.554 114.193 132.344 114.324C132.311 114.346 131.365 114.291 130.242 114.204C129.131 114.116 126.632 114.006 124.706 113.962C121.756 113.896 121.184 113.863 121.107 113.721C120.865 113.27 120.215 111.613 120.27 111.569C120.347 111.492 122.989 111.217 124.75 111.108C126.379 110.998 134.546 110.943 134.546 111.031ZM138.618 111.185C138.618 111.239 138.541 111.305 138.453 111.349C138.288 111.404 138.233 111.294 138.365 111.163C138.464 111.053 138.618 111.064 138.618 111.185ZM145.167 111.536C148.711 111.799 152.53 112.195 155.843 112.623C159.343 113.073 159.42 113.084 159.42 113.161C159.409 113.194 158.881 113.622 158.242 114.105C157.593 114.588 156.195 115.664 155.139 116.509L153.224 118.024L151.837 117.728C151.077 117.574 148.865 117.091 146.928 116.663C144.055 116.037 138.662 115.038 138.156 115.038C138.079 115.038 138.068 114.906 138.112 114.687L138.178 114.335L137.859 114.643C137.55 114.939 137.495 114.95 136.857 114.873C136.494 114.829 136.197 114.764 136.219 114.72C136.241 114.687 136.604 114.127 137.022 113.479L137.793 112.304L138.948 111.744L140.104 111.185L141.205 111.25C141.81 111.294 143.593 111.415 145.167 111.536ZM164.538 113.896C166.299 114.182 167.763 114.434 167.807 114.478C167.84 114.511 167.037 115.455 166.002 116.575C163.151 119.66 160.752 122.361 157.901 125.687C156.47 127.345 155.304 128.717 155.293 128.739C155.282 128.75 154.016 128.146 152.475 127.4C150.934 126.653 149.041 125.764 148.249 125.413C147.467 125.061 146.774 124.743 146.73 124.699C146.543 124.534 153.796 118.683 160.191 113.852C160.521 113.6 160.917 113.391 161.071 113.391C161.225 113.391 162.788 113.622 164.538 113.896ZM129.208 114.939C130.363 115.005 131.332 115.093 131.376 115.137C131.42 115.17 130.462 115.752 129.263 116.421L127.061 117.64L125.058 117.168C123.946 116.904 122.769 116.641 122.428 116.575L121.811 116.454L121.635 115.664C121.525 115.225 121.448 114.829 121.448 114.774C121.448 114.654 126.28 114.753 129.208 114.939ZM136.395 115.543L136.736 115.609L136.208 116.235C135.921 116.575 135.437 117.19 135.14 117.618C134.843 118.035 134.546 118.43 134.48 118.496C134.414 118.551 134.193 118.836 134.006 119.122C133.808 119.418 133.621 119.649 133.588 119.649C133.423 119.649 131.684 119.045 131.684 118.99C131.684 118.957 132.025 118.716 132.432 118.441C132.84 118.167 133.72 117.398 134.381 116.729C135.613 115.488 135.734 115.411 136.395 115.543ZM130.826 116.542C130.462 117.014 129.978 117.607 129.747 117.87L129.318 118.331L128.338 118.024L127.358 117.717L129.384 116.663C130.495 116.081 131.42 115.62 131.442 115.642C131.464 115.664 131.189 116.07 130.826 116.542ZM140.071 115.982C142.723 116.333 152.871 118.024 152.981 118.134C153.003 118.156 152.123 118.924 151.022 119.836C149.922 120.747 148.326 122.097 147.478 122.833C146.631 123.568 145.882 124.194 145.816 124.216C145.75 124.249 144.672 123.843 143.406 123.327C141.37 122.492 137.826 121.131 136.23 120.571C135.91 120.461 135.646 120.319 135.646 120.264C135.646 120.132 136.428 118.342 137.198 116.707C137.451 116.158 137.738 115.697 137.804 115.697C137.881 115.697 138.904 115.828 140.071 115.982ZM123.924 117.695C124.651 117.87 125.41 118.068 125.619 118.134L125.994 118.255L125.377 118.606C124.453 119.122 124.475 119.177 125.41 118.716L126.247 118.31L127.392 118.628C128.14 118.836 128.547 119.012 128.547 119.111C128.547 119.188 127.799 119.923 126.874 120.747C125.961 121.559 125.223 122.24 125.234 122.251C125.245 122.262 125.697 122.152 126.236 121.998C127.403 121.669 128.888 120.977 130.022 120.22L130.826 119.671L131.717 119.945C132.201 120.099 132.719 120.264 132.873 120.319L133.137 120.417L132.796 120.835C132.212 121.581 129.67 123.963 128.459 124.897L127.281 125.819L125.829 124.886C125.025 124.381 123.792 123.634 123.088 123.239L121.822 122.503L121.976 121.658C122.075 121.054 122.108 120.275 122.075 119.023L122.02 117.234L122.318 117.3C122.472 117.332 123.198 117.508 123.924 117.695ZM137.826 122.053C139.146 122.525 141.326 123.36 142.679 123.887L145.145 124.853L143.89 126.016C143.208 126.653 141.854 127.916 140.885 128.838C139.906 129.749 139.102 130.496 139.091 130.485C139.025 130.408 138.607 126.906 138.541 125.874C138.453 124.304 138.288 124.479 137.969 126.51C137.837 127.356 137.55 128.816 137.341 129.76C137.132 130.704 136.967 131.703 136.967 131.978C136.967 132.263 136.923 132.494 136.868 132.494C136.824 132.494 136.186 132.054 135.47 131.528C134.744 131.001 133.467 130.078 132.62 129.475C131.772 128.882 131.035 128.355 130.969 128.3C130.914 128.245 131.068 128.003 131.365 127.685C132.058 126.971 132.609 126.269 132.928 125.687C133.071 125.413 133.467 124.71 133.808 124.117C134.138 123.524 134.601 122.624 134.832 122.108C135.074 121.603 135.305 121.186 135.349 121.186C135.393 121.186 136.516 121.581 137.826 122.053ZM123.88 124.721C124.97 125.402 125.994 126.06 126.148 126.192L126.434 126.423L125.069 127.246C124.321 127.696 123.462 128.201 123.176 128.366L122.648 128.673L121.382 127.433C120.689 126.752 120.127 126.159 120.127 126.104C120.127 126.06 120.336 125.709 120.601 125.336C120.854 124.951 121.184 124.359 121.327 124.007C121.514 123.557 121.635 123.393 121.745 123.425C121.833 123.458 122.791 124.04 123.88 124.721ZM148.106 126.115C149.217 126.587 150.989 127.389 152.046 127.883C153.102 128.366 154.159 128.849 154.39 128.948C154.61 129.035 154.797 129.156 154.797 129.2C154.797 129.255 154.17 130.023 153.4 130.924C151.584 133.032 151.43 133.262 152.772 131.835C153.367 131.198 154.159 130.375 154.522 130.002L155.183 129.321L159.53 131.462L163.878 133.602L162.777 134.042C160.103 135.096 156.735 136.929 154.709 138.411C153.235 139.498 151.573 140.991 150.615 142.089C150.164 142.605 149.768 143.033 149.735 143.033C149.702 143.033 149.107 142.528 148.414 141.924C146.554 140.299 143.571 137.807 141.359 136.04L139.422 134.492L139.355 133.065C139.311 132.274 139.256 131.56 139.223 131.473C139.179 131.385 139.444 131.044 139.906 130.605C141.634 128.959 145.849 125.248 145.992 125.248C146.047 125.248 146.994 125.643 148.106 126.115ZM132.421 130.496C133.687 131.396 135.074 132.384 135.503 132.702L136.307 133.284L134.127 135.535C132.939 136.775 131.882 137.829 131.783 137.873C131.651 137.95 131.123 137.456 129.351 135.59C128.118 134.283 126.599 132.68 125.983 132.044L124.871 130.891L125.641 130.704C126.753 130.441 128.019 129.914 129.009 129.31C129.483 129.013 129.934 128.794 130 128.816C130.077 128.849 131.167 129.595 132.421 130.496ZM136.868 134.492C136.835 135.611 136.549 137.28 136.142 138.817C135.811 140.08 135.283 141.672 135.162 141.803C135.14 141.825 134.92 141.628 134.689 141.364C134.447 141.101 133.698 140.277 133.016 139.542L131.783 138.18L133.027 137.006C136.109 134.096 136.681 133.591 136.791 133.701C136.846 133.756 136.879 134.118 136.868 134.492ZM140.599 136.545C143.34 138.642 149.074 143.318 149.239 143.593C149.272 143.648 149.107 143.955 148.865 144.284C148.623 144.603 148.062 145.481 147.621 146.217L146.818 147.567L146.069 146.755C145.068 145.69 144.253 144.603 142.679 142.231C141.238 140.058 139.388 136.578 139.388 136.007C139.388 135.601 139.355 135.579 140.599 136.545ZM138.178 143.307C138.288 144.449 138.376 145.393 138.354 145.415C138.31 145.47 136.527 143.461 136.527 143.351C136.527 143.296 136.692 143 136.901 142.682C137.099 142.363 137.407 141.825 137.583 141.496C137.749 141.167 137.903 140.969 137.925 141.057C137.936 141.145 138.057 142.155 138.178 143.307Z"
          fill="currentColor"/>
    <path d="M264.364 28.0343C260.357 28.8138 258.211 29.4505 255.416 30.6801C250.21 32.9746 246.709 35.829 245.224 38.9688C244.53 40.4289 244.299 41.9988 244.651 42.8551C244.981 43.6456 246.346 44.3262 248.074 44.5678C252.587 45.2045 261.81 42.7563 270.417 38.6504C272.806 37.5087 273.334 37.2232 272.784 37.344C272.63 37.3769 271.32 37.6404 269.867 37.9149C268.414 38.1893 265.046 38.881 262.383 39.4518C256.582 40.6924 254.667 41.0766 252.477 41.4279C249.549 41.911 246.698 41.9988 246.787 41.5926C246.886 41.1754 247.964 39.7812 249.01 38.7273C251.398 36.334 255.603 33.5564 261.172 30.6691C264.144 29.1321 266.95 27.6391 266.95 27.5842C266.95 27.5293 267.181 27.4854 264.364 28.0343Z"
          fill="currentColor"/>
    <path d="M170.17 29.922C171.017 31.5358 171.821 32.8752 173.23 35.0599C175.123 38.0131 175.904 39.3195 176.367 40.3295C176.983 41.6689 176.983 41.5811 176.444 41.8116C175.772 42.108 175.002 42.1739 173.967 42.0312C170.896 41.614 167.11 39.7587 162.708 36.531C162.025 36.026 161.178 35.4112 160.848 35.1697L160.242 34.7306L160.484 35.1148C161.299 36.4103 162.62 38.1778 163.379 38.9902C163.863 39.5062 164.975 40.4942 165.833 41.1749C167.925 42.8436 168.002 42.9095 169.256 43.6231C172.437 45.4565 174.694 45.6651 176.62 44.2928C177.28 43.8207 177.5 43.5462 177.93 42.6131C178.612 41.1639 178.425 39.605 177.302 37.3544C176.521 35.8174 175.244 34.1158 173.56 32.3812C172.415 31.2065 169.895 28.9669 169.719 28.9669C169.675 28.9669 169.884 29.3951 170.17 29.922Z"
          fill="currentColor"/>
    <path d="M20.6061 37.003C19.2633 37.1787 17.4142 38.1667 16.5007 39.2097C15.8733 39.9233 15.202 41.2846 14.9708 42.3276C14.6076 43.9743 14.8167 46.3896 15.5652 48.9475C15.7413 49.5843 16.0715 50.9346 16.2916 51.9666C17.2491 56.5665 18.4268 60.8811 20.3309 66.8972C20.9143 68.7087 21.7618 71.4533 22.224 72.9902C25.2618 83.0904 27.8043 90.2373 29.9836 94.8373C30.9301 96.8134 31.5135 98.3503 32.7462 102.028L33.5497 104.443L33.7037 103.73C34.111 101.83 34.5622 100.14 35.2777 97.9441C35.7069 96.6267 36.0811 95.452 36.1142 95.3203C36.1582 95.1447 35.9601 94.8702 35.2887 94.1676C34.8154 93.6626 34.3421 93.0917 34.2431 92.916C34.155 92.7294 33.6267 91.9719 33.0654 91.2144C30.9301 88.3271 29.6424 86.2631 28.1235 83.2221C26.9898 80.9715 26.3735 79.5553 25.9882 78.3148C25.4269 76.5363 20.9583 60.5188 18.68 52.1313L18.0416 49.7709L18.0636 46.9275C18.0856 45.16 18.1407 43.9304 18.2177 43.6999C18.3718 43.2278 20.3089 41.2736 20.8923 40.9992C21.6297 40.6479 22.9064 40.6369 24.6565 40.9772C25.504 41.1309 27.9254 41.5152 30.0386 41.8116C32.1628 42.108 34.3861 42.4593 34.9915 42.591C37.3909 43.0851 42.4759 44.5452 43.8076 45.1051C47.847 46.8177 53.2071 50.7699 55.4965 53.7451C56.0028 54.3928 56.344 55.1833 56.7402 56.6873C57.0814 57.9279 57.1034 58.1255 57.1034 59.9259L57.1144 61.8472L56.5421 63.5927C56.2229 64.5588 55.9587 65.4261 55.9587 65.5139C55.9587 65.7116 56.5201 64.8992 57.0924 63.8782C57.3125 63.4829 57.9509 62.1326 58.5232 60.8811C59.7009 58.3121 60.8896 56.4128 62.8157 54.0305C64.3786 52.0874 65.8645 50.8358 68.2639 49.4196C70.6963 47.9924 72.4904 47.2898 76.5958 46.2029C79.6115 45.3905 81.1084 45.0722 83.1446 44.7757C85.1477 44.5013 91.0582 44.0073 92.5991 43.9963C94.0079 43.9963 93.8318 43.8865 92.0047 43.634C88.3176 43.14 82.6603 43.118 78.797 43.5791C74.6696 44.0621 70.157 45.2478 67.1302 46.6201C65.6554 47.2898 64.6758 47.4545 62.0123 47.4545C59.3707 47.4545 58.127 47.202 55.8156 46.192C50.8407 44.0182 43.2683 41.2846 38.7777 40.066C34.2321 38.8254 28.96 37.6727 25.7461 37.2116C24.0621 36.9701 21.5967 36.8713 20.6061 37.003Z"
          fill="currentColor"/>
    <path d="M215.627 41.1752C215.561 42.5475 215.176 45.841 214.89 47.4219C214.406 50.1226 213.151 55.2934 212.457 57.4561C212.226 58.1697 212.05 58.7845 212.072 58.7955C212.226 58.9602 214.615 55.2385 215.671 53.1746C217.223 50.1665 218.28 47.3889 218.313 46.2691C218.324 45.4458 218.401 45.4567 219.601 46.5326C220.228 47.0925 220.855 47.7512 220.998 48.0037C221.472 48.8161 221.923 50.0237 222.33 51.6156C222.671 52.955 222.737 53.4051 222.781 54.7664C222.814 55.8862 222.781 56.6767 222.66 57.4561C222.572 58.049 222.517 58.5649 222.539 58.5979C222.737 58.7845 223.882 57.1926 224.52 55.8533C225.709 53.3282 226.083 50.5507 225.467 48.7942C224.608 46.357 221.483 43.2281 217.212 40.5384C216.508 40.0883 215.88 39.726 215.814 39.726C215.737 39.726 215.671 40.242 215.627 41.1752Z"
          fill="currentColor"/>
    <path d="M194.772 40.5163C194.266 42.1411 194.167 42.8766 194.233 44.3807C194.343 46.9716 194.783 48.5635 196.038 51.0885C196.886 52.7792 198.151 54.7662 198.922 55.6445C199.296 56.0617 199.362 56.1056 199.373 55.908C199.384 55.2054 200.804 51.5715 201.574 50.2651C201.761 49.9358 202.202 49.1233 202.532 48.4646C202.862 47.795 203.6 46.4007 204.161 45.3797C206.362 41.3506 207.078 40.0113 207.023 39.9674C206.89 39.8356 204.194 41.8447 203.104 42.8766C201.651 44.2599 200.298 46.247 199.131 48.7171C198.834 49.3429 198.548 49.804 198.493 49.7601C198.349 49.5954 197.667 47.6632 197.139 45.9286C196.676 44.4136 195.136 39.9564 195.026 39.8576C195.003 39.8356 194.893 40.132 194.772 40.5163Z"
          fill="currentColor"/>
    <path d="M189.266 41.2306C187.241 42.4272 186.207 43.2067 184.732 44.6668C183.169 46.2147 182.465 47.1369 181.76 48.5641C180.979 50.145 180.77 51.1331 180.77 53.2739C180.77 55.217 180.968 56.8089 181.386 58.2471C181.892 60.0036 182.2 60.2451 182.2 58.8838C182.2 56.7979 182.641 54.3497 183.466 51.8357C184.204 49.5961 184.666 48.8056 186.108 47.3236L187.329 46.061L187.285 47.3675C187.252 48.3555 187.296 49.0691 187.483 50.2658C187.825 52.5273 188.331 54.9865 188.694 56.1392C188.87 56.6772 189.079 57.4127 189.178 57.753C189.487 58.8509 189.575 58.6313 189.575 56.7101C189.575 54.7999 189.828 49.4753 190.015 47.1918C190.136 45.8085 190.697 41.8673 190.895 41.011C190.95 40.7585 191.006 40.517 191.006 40.4621C191.006 40.2645 190.62 40.4401 189.266 41.2306Z"
          fill="currentColor"/>
    <path d="M162.281 44.2929C162.281 44.4246 163.613 45.9616 164.185 46.4996C165.396 47.6413 167.917 49.0575 169.435 49.4527C169.832 49.5515 170.217 49.6504 170.305 49.6723C170.393 49.7052 170.14 50.0456 169.612 50.5945C168.258 52.0107 167.311 53.6575 166.629 55.7543C166.387 56.5009 166.321 56.973 166.277 58.0598C166.244 58.8173 166.233 59.5309 166.255 59.6407C166.31 59.8822 167.157 58.8063 168.885 56.3033C171.075 53.1305 172.792 51.0446 174.487 49.4967C175.038 48.9917 175.533 48.4318 175.599 48.2561C175.808 47.6303 175.335 47.3229 174.366 47.4657C173.167 47.6413 171.009 47.1253 166.959 45.6981C164.758 44.9187 162.281 44.1831 162.281 44.2929Z"
          fill="currentColor"/>
    <path d="M262.712 45.2374C256.45 47.5209 253.709 48.3553 251.123 48.7834C249.736 49.014 248.041 48.97 247.116 48.6736C246.5 48.476 246.478 48.476 246.258 48.6736C245.961 48.9371 245.972 49.2994 246.368 51.7147C247.171 56.6879 247.479 59.3666 247.59 62.221C247.656 63.758 247.744 65.0863 247.788 65.1632C247.898 65.3608 248.932 62.1332 249.218 60.706C249.747 58.1151 249.978 54.58 249.736 53.1638L249.659 52.7137L250.682 52.6478C251.838 52.5819 253.148 52.2745 254.381 51.7915C256.527 50.9352 259.245 49.3433 260.885 47.96C261.337 47.5758 262.47 46.6536 263.417 45.8961C265.409 44.3042 265.376 44.3372 265.244 44.3481C265.178 44.3481 264.044 44.7543 262.712 45.2374Z"
          fill="currentColor"/>
    <path d="M124.581 45.4677C121.884 47.7182 120.322 49.8041 119.848 51.8461C119.639 52.7134 119.639 54.7005 119.848 55.8862C120.024 56.8852 120.63 58.7515 121.081 59.6408C121.422 60.3214 122.578 62.2207 122.655 62.2207C122.688 62.2207 122.908 61.6169 123.139 60.8813C123.866 58.6417 125.252 56.1826 127.355 53.416C128.686 51.6705 129.38 50.891 131.603 48.6953C132.748 47.5645 133.65 46.6423 133.606 46.6423C133.408 46.6423 131.427 47.817 130.381 48.5416C129.765 48.9807 128.807 49.6065 128.257 49.9359C126.672 50.891 124.999 52.1974 123.789 53.405L122.677 54.5358L122.6 54.1077C122.424 53.0757 122.512 51.7693 122.853 50.4738C123.436 48.2781 124.119 46.829 125.296 45.27C125.594 44.8748 125.803 44.5565 125.759 44.5565C125.715 44.5565 125.186 44.9736 124.581 45.4677Z"
          fill="currentColor"/>
    <path d="M48.5409 49.3869C48.5959 49.4747 48.8711 49.8919 49.1462 50.32C50.2249 51.9448 51.0613 54.0417 51.5676 56.4131C51.8208 57.5877 51.8978 59.5199 51.7327 60.4092L51.6557 60.8044L50.9733 59.9591C49.6635 58.3233 47.8915 56.7314 45.6352 55.1505C44.9858 54.7004 44.0613 53.9978 43.577 53.6026C42.8175 52.9878 40.8584 51.6923 40.6823 51.6923C40.6493 51.6923 40.9354 52.0107 41.2986 52.395C41.6729 52.7792 41.981 53.1525 41.981 53.2183C41.981 53.2732 42.5093 53.888 43.1477 54.5687C44.9638 56.5009 46.2515 58.2245 48.0126 61.1008C48.9261 62.5719 50.1038 64.8445 50.5771 66.0192C50.7201 66.3814 51.0173 67.2817 51.2264 68.0282C51.4466 68.7747 51.6777 69.3786 51.7327 69.3895C51.9198 69.4115 53.4057 66.3266 53.7909 65.1189C54.2752 63.6259 54.4843 62.6268 54.6494 60.9911C55.0016 57.3901 53.846 54.5906 50.6981 51.341C49.4104 50.0236 48.3097 49.0246 48.5409 49.3869Z"
          fill="currentColor"/>
    <path d="M134.775 51.7033C132.167 53.2513 129.096 56.3143 127.17 59.2784C126.014 61.0679 125.53 62.55 125.673 63.8894C125.75 64.559 125.794 64.6688 126.278 65.2068C127.522 66.601 131.011 71.201 132.013 72.7709C133.047 74.3847 133.63 75.1532 133.741 75.0434C133.829 74.9556 133.322 73.1881 132.816 71.7828C131.638 68.5113 130.879 66.8535 129.492 64.4493C129.063 63.7027 128.711 62.9672 128.711 62.8135C128.711 62.3743 129.019 61.3204 129.404 60.3982C130.042 58.9052 131.638 56.5338 134.104 53.394C135.27 51.9009 135.832 51.1434 135.733 51.1434C135.722 51.1544 135.281 51.3959 134.775 51.7033Z"
          fill="currentColor"/>
    <path d="M40.3481 59.6076C42.2192 62.3632 43.628 64.6467 44.3324 66.052C44.8387 67.051 45.4551 68.8734 45.5872 69.7407L45.6862 70.3884L44.6406 72.4853C44.0683 73.638 43.3859 75.1201 43.1327 75.7898C42.0761 78.5234 40.4472 83.8589 40.5682 84.1993C40.6233 84.3639 41.4708 83.1124 42.2852 81.6413C42.7255 80.8399 43.2428 79.9396 43.4299 79.6322C44.1013 78.5783 47.084 74.2418 47.8545 73.2099L48.6359 72.1669V70.8495C48.6249 69.6968 48.5919 69.4223 48.3277 68.6758C47.029 64.9871 42.9126 59.7064 39.6547 57.5657C39.2364 57.2912 38.8072 57.0277 38.7081 56.9948C38.6091 56.9509 39.3465 58.1365 40.3481 59.6076Z"
          fill="currentColor"/>
    <path d="M173.439 60.8043C172.614 60.8921 172.02 61.0458 171.48 61.3312C171.172 61.4849 171.161 61.4959 171.359 61.6386C171.469 61.7265 171.678 61.7923 171.81 61.7923C171.953 61.7923 172.086 61.8362 172.119 61.8801C172.152 61.935 172.108 62.4181 172.02 62.956C171.711 64.8224 171.843 67.7536 172.306 69.4662C173.263 73.0013 176.18 75.8447 178.844 75.8447C179.636 75.8447 180.538 75.5812 181.518 75.0762C181.98 74.8347 182.619 74.5931 182.916 74.5382C183.697 74.3955 185.833 74.2638 185.833 74.3626C185.833 74.4065 185.612 74.6919 185.348 74.9993C184.402 76.1191 183.136 78.5014 182.432 80.4885C182.101 81.4437 180.88 85.9228 180.88 86.1863C180.88 86.362 181.375 85.4947 184.017 80.6752C186.207 76.6571 187.076 74.9664 187.197 74.4834C187.241 74.2857 187.219 74.0881 187.12 73.9344C187.043 73.8137 186.856 73.3526 186.724 72.9354C186.35 71.8266 185.051 69.049 184.358 67.8963C183.477 66.4142 182.839 65.5908 181.606 64.3393C179.394 62.0778 177.611 61.0568 175.564 60.8592C175.189 60.8262 174.738 60.7823 174.551 60.7604C174.375 60.7384 173.869 60.7604 173.439 60.8043ZM176.708 62.7474C178.084 63.1976 178.656 63.505 178.469 63.6916C178.249 63.9112 178.337 63.9551 178.888 63.9002C179.372 63.8563 179.449 63.8782 179.614 64.1417C179.724 64.3064 179.779 64.5259 179.746 64.6687C179.636 65.0858 178.249 66.8973 178.04 66.8973C177.831 66.8973 177.545 65.9861 177.611 65.5579C177.699 65.0968 177.468 65.4262 177.292 66.041C177.071 66.8095 177.071 68.2037 177.303 69.0161C177.666 70.2567 178.711 71.8485 179.504 72.3316C180.032 72.6609 180.671 72.65 181.199 72.2987C182.2 71.6399 183.026 70.4762 183.147 69.5541C183.191 69.2686 183.257 69.0381 183.312 69.0381C183.554 69.0381 185.734 73.122 185.568 73.2867C185.557 73.3087 185.271 73.2538 184.93 73.1879C184.27 73.0452 183.995 73.1111 182.355 73.8027C180.605 74.5382 178.954 74.6151 177.765 74.0332C175.41 72.8695 173.384 69.3015 173.384 66.2935C173.384 64.6906 173.715 63.5818 174.507 62.6377C174.914 62.1436 174.892 62.1436 176.708 62.7474Z"
          fill="currentColor"/>
    <path d="M224.631 61.5727C221.142 61.7484 218.478 62.6157 216.2 64.3173C214.615 65.503 212.205 68.2586 211.159 70.081C210.675 70.9263 209.464 73.5392 209.53 73.6051C209.541 73.627 209.904 73.5392 210.322 73.4074C210.994 73.2098 211.269 73.1879 212.491 73.2428C213.316 73.2867 214.241 73.4074 214.747 73.5282C216.288 73.9234 218.214 74.121 219.788 74.0442C221.428 73.9673 222.011 73.8466 223.508 73.2757C227.052 71.9034 230.079 68.3354 231.191 64.2295C231.422 63.3622 231.917 62.451 232.291 62.1875C232.478 62.0558 232.412 62.0228 231.653 61.8582C229.87 61.4849 228.098 61.4081 224.631 61.5727ZM228.681 63.0987C229.518 63.1536 230.222 63.2195 230.255 63.2414C230.343 63.3402 229.518 65.5689 229.077 66.4032C227.867 68.7197 225.126 71.4313 222.991 72.4304C222.055 72.8695 221.12 73.0891 219.513 73.2318L218.126 73.3635L216.266 72.9464C213.756 72.3974 212.997 72.0242 212.843 71.2776C212.788 70.9922 212.876 70.8165 213.448 70.07C213.811 69.576 214.67 68.6209 215.352 67.9402L216.574 66.6996L216.761 67.6218C217.036 68.9612 217.51 69.8175 218.489 70.7616C219.821 72.0461 220.701 72.3535 221.681 71.8814C222.319 71.5741 223.563 70.2127 224.003 69.3564C224.983 67.4132 225.049 64.8223 224.146 63.5708L223.915 63.2414L224.708 63.1756C225.148 63.1426 225.687 63.0877 225.896 63.0768C226.612 62.9999 227.151 63.0109 228.681 63.0987ZM218.423 65.0968C218.632 65.3054 218.654 65.4152 218.588 65.986C218.511 66.7106 218.225 67.9512 218.093 68.0829C217.928 68.2476 217.664 68.028 217.378 67.512C216.772 66.3922 217.179 64.9541 218.115 64.8772C218.159 64.8662 218.302 64.976 218.423 65.0968Z"
          fill="currentColor"/>
    <path d="M234.526 69.0603C234.471 69.1701 233.711 69.9935 232.842 70.9047C231.972 71.8049 231.169 72.6722 231.048 72.8259C230.586 73.4078 228.692 74.8679 227.779 75.34C226.216 76.1414 224.543 76.5037 221.406 76.7232C219.942 76.822 219.293 76.9318 219.293 77.1075C219.293 77.1294 219.568 77.338 219.909 77.5576C220.944 78.2492 224.114 79.3361 226.227 79.7313C229.287 80.3132 231.246 79.391 232.655 76.7232C233.315 75.4717 233.932 73.1882 233.932 71.9806C233.932 71.761 234.108 71.0474 234.317 70.3887C234.691 69.2689 234.79 68.6102 234.526 69.0603Z"
          fill="currentColor"/>
    <path d="M105.708 69.4441C105.708 69.499 105.631 71.6069 105.543 74.1429C105.356 79.6211 105.345 82.2889 105.488 84.7371C105.62 86.8779 105.884 89.3919 106.072 90.2263L106.215 90.8301L107.348 88.6344C107.976 87.4268 108.845 85.791 109.285 85.0115C109.726 84.2211 110.386 83.0135 110.771 82.3218C111.145 81.6302 112.048 80.0603 112.774 78.8307C113.501 77.6011 114.073 76.5801 114.051 76.5582C113.974 76.4813 112.962 77.2059 112.191 77.8865C110.848 79.0832 109.241 80.9715 108.064 82.75L107.524 83.5624L107.447 80.9934C107.326 76.5472 106.842 72.9463 105.983 69.9821C105.818 69.4332 105.708 69.2246 105.708 69.4441Z"
          fill="currentColor"/>
    <path d="M170.316 69.8403C170.316 69.8623 170.459 70.3453 170.647 70.9052C170.823 71.4761 171.054 72.4641 171.142 73.1009C171.461 75.2087 172.154 77.4264 172.859 78.5352C173.816 80.0612 174.906 80.6431 176.271 80.3576C177.515 80.0941 180.288 78.5681 181.059 77.7338C181.675 77.0641 181.554 76.9433 180.299 76.9433C179.1 76.9433 177.614 76.7347 176.788 76.4493C175.897 76.1529 174.851 75.4283 174.07 74.583C173.53 73.9901 171.197 70.9711 170.669 70.1806C170.459 69.8623 170.316 69.7195 170.316 69.8403Z"
          fill="currentColor"/>
    <path d="M86.7978 71.7828C86.3356 73.9346 86.1925 75.5813 86.1815 79.0285C86.1705 80.807 86.2035 82.8051 86.2475 83.4748L86.3356 84.6824L86.0824 84.3531C84.6076 82.377 82.7034 80.2911 81.4047 79.2152C80.4912 78.4577 79.3135 77.6453 79.2474 77.7221C79.2144 77.7441 79.7978 78.6553 80.5352 79.7421C82.1641 82.1464 84.5415 85.923 86.5667 89.2714C87.7994 91.3243 88.0856 91.7196 88.1406 91.511C88.4268 90.3363 88.4708 84.3091 88.2067 81.2791C87.9645 78.6114 87.1941 71.2558 87.117 70.9594C87.051 70.685 87.007 70.7947 86.7978 71.7828Z"
          fill="currentColor"/>
    <path d="M207.253 72.4966C207.286 73.1004 207.341 74.0226 207.363 74.5495C207.407 75.6474 207.638 76.4049 208.287 77.5357C209.355 79.391 211.413 81.2464 213.714 82.3881C214.693 82.8821 218.292 84.3532 218.358 84.2764C218.369 84.2654 217.676 83.6067 216.817 82.8382C214.407 80.6865 212.459 78.7872 211.391 77.5576C210.114 76.0865 208.364 73.6383 207.704 72.3868L207.176 71.3987L207.253 72.4966Z"
          fill="currentColor"/>
    <path d="M121.827 75.3399C120.517 75.801 119.494 76.2511 119.395 76.4158C119.362 76.4597 119.527 76.5036 119.769 76.5036C120.473 76.5036 122.201 76.833 123.236 77.1733C125.195 77.8101 126.857 78.7432 128.09 79.9069L128.728 80.5107L128.651 80.0167C128.607 79.7423 128.453 79.2043 128.299 78.8091C127.661 77.0855 126.626 75.7571 125.492 75.1972C124.909 74.9008 124.7 74.8569 123.985 74.8678C123.291 74.8678 122.917 74.9447 121.827 75.3399Z"
          fill="currentColor"/>
    <path d="M63.8273 78.0735C62.6276 78.4797 61.571 79.3361 60.7345 80.5876C60.1622 81.4329 59.6009 82.7503 59.5898 83.2334V83.5518L60.1292 83.1016C61.3068 82.1136 62.9578 81.2573 64.928 80.6205C66.6229 80.0606 67.7786 79.8191 69.4956 79.6434L70.7614 79.5117L70.211 79.2592C69.9139 79.1275 68.9233 78.7871 68.0098 78.5127C66.634 78.0845 66.1827 77.9967 65.3132 77.9638C64.6528 77.9418 64.1025 77.9857 63.8273 78.0735Z"
          fill="currentColor"/>
    <path d="M120.892 83.1672C119.956 83.277 117.887 83.6722 116.875 83.9357C113.386 84.8359 111.371 86.812 110.469 90.1824C110.095 91.6316 109.974 94.5079 110.26 95.6057C110.359 96.001 110.491 96.3632 110.535 96.4072C110.59 96.4621 110.766 96.3193 110.942 96.0998C111.107 95.8802 111.493 95.5728 111.801 95.4191C112.109 95.2654 112.582 95.0129 112.846 94.8592L113.331 94.5738L112.956 94.442C112.461 94.2664 111.614 94.2554 111.438 94.4201C111.316 94.5408 111.305 94.3981 111.371 93.6406C111.46 92.4879 111.757 91.3022 112.142 90.5337C112.494 89.864 113.617 88.2502 113.76 88.2502C113.804 88.2502 113.848 88.4478 113.848 88.7003C113.848 89.9519 114.541 91.7633 115.323 92.5757C115.917 93.1685 116.434 93.4101 117.172 93.4101C118.966 93.3991 120.045 91.8072 120.342 88.6784C120.452 87.5366 120.353 86.329 120.111 85.791C120.034 85.6374 120.001 85.4837 120.034 85.4507C120.122 85.3519 123.016 85.0665 123.886 85.0665H124.733L124.788 85.4178C125.317 88.7772 124.15 91.7084 121.519 93.6955C120.397 94.5408 119.241 94.958 117.293 95.2105L116.214 95.3423L116.754 95.6936C117.909 96.4401 119.802 96.3742 121.651 95.5399C123.181 94.8373 124.084 93.948 124.909 92.3232C125.658 90.8411 125.768 90.1824 125.801 87.2622L125.823 84.6822L126.847 84.6054C127.859 84.5285 128.233 84.4517 128.134 84.3529C128.068 84.276 125.79 83.804 124.029 83.4856C122.301 83.1782 121.464 83.0904 120.892 83.1672ZM116.258 86.5595C116.545 86.9218 116.545 87.0975 116.258 87.855C115.818 89.0297 115.433 89.1834 114.971 88.371C114.607 87.7232 114.64 87.0097 115.048 86.5925C115.466 86.1753 115.95 86.1643 116.258 86.5595Z"
          fill="currentColor"/>
    <path d="M69.4934 85.583C68.3707 85.6927 65.1128 86.8674 62.4823 88.108C61.7008 88.4703 61.6568 88.5142 61.943 88.5581C62.1191 88.5801 62.7574 88.5361 63.3628 88.4703C63.9681 88.4044 64.4965 88.3824 64.5405 88.4373C64.6395 88.5581 64.7826 89.0851 65.2669 91.1051C65.9823 94.0912 66.4336 95.2769 67.4132 96.7151C68.932 98.9547 70.7811 100.052 73.2245 100.184C75.2717 100.294 76.9227 99.7561 77.9133 98.6582C78.1884 98.3508 78.3976 98.0874 78.3755 98.0654C78.3645 98.0434 77.8803 98.1313 77.3079 98.2411C76.6035 98.3838 75.8221 98.4606 74.9085 98.4606C73.3566 98.4606 72.7733 98.3069 71.2764 97.5275C68.2276 95.9136 66.4776 93.1581 65.9273 89.0521L65.8612 88.602L66.3896 88.4813C66.9399 88.3715 68.3267 88.1958 69.4493 88.097L70.1207 88.0421L70.0767 88.7777C69.9226 90.9624 71.7057 94.5743 73.2906 95.2879C74.6224 95.8917 75.9101 95.2549 76.7136 93.5972C77.2639 92.4335 77.462 91.4235 77.396 89.9414C77.3409 88.8435 77.3519 88.7118 77.517 88.7667C78.9809 89.2937 80.6429 90.4354 81.7545 91.665C82.3158 92.2908 83.4385 94.4206 83.5376 95.0793C83.6036 95.4525 83.5926 95.4635 83.2734 95.4086C82.9652 95.3647 82.3819 95.6062 81.7325 96.0234C81.3913 96.243 81.5124 96.3089 82.8662 96.5394C83.5486 96.6602 84.1539 96.8358 84.4401 97.0005C84.7042 97.1542 84.9574 97.242 84.9904 97.1981C85.1995 96.9895 85.0454 95.1671 84.7042 93.8607C83.6366 89.6779 81.0611 86.9882 77.1648 86.0001C75.6239 85.6159 71.4415 85.3853 69.4934 85.583ZM71.9808 87.3834C72.1129 87.5261 72.1789 87.7567 72.1789 88.0202C72.1569 88.5801 71.7167 89.8975 71.5185 89.9743C71.1113 90.128 70.4949 89.0741 70.4839 88.2178C70.4839 87.8006 70.539 87.6359 70.7591 87.4273C71.1003 87.076 71.6836 87.0541 71.9808 87.3834Z"
          fill="currentColor"/>
    <path d="M191.389 87.7235C190.541 87.7674 189.297 87.7784 188.615 87.7454C187.239 87.6686 187.041 87.7235 187.338 88.0528C187.855 88.6237 189.44 89.0848 190.497 88.964C190.86 88.9311 191.378 88.8103 191.653 88.7006C192.148 88.5139 193.425 87.7454 193.425 87.6466C193.425 87.6137 193.315 87.6027 193.183 87.6137C193.039 87.6137 192.236 87.6686 191.389 87.7235Z"
          fill="currentColor"/>
    <path d="M185.151 88.0971C184.777 88.2947 184.402 88.9863 184.402 89.4694C184.402 89.8865 184.622 90.666 184.744 90.666C184.843 90.666 185.833 88.3276 185.833 88.0861C185.833 87.8775 185.536 87.8775 185.151 88.0971Z"
          fill="currentColor"/>
    <path d="M195.131 88.0197C195.098 88.0966 195.109 88.2174 195.175 88.2942C195.34 88.4918 197.52 89.9959 198.202 90.3801L198.73 90.6875L198.532 90.3472C197.762 89.0517 196.584 88.0527 195.704 87.9539C195.395 87.9209 195.186 87.9429 195.131 88.0197Z"
          fill="currentColor"/>
    <path d="M185.594 91.16C185.153 91.4125 185.076 91.8187 185.429 92.0932C185.583 92.2139 186.342 93.0044 187.102 93.8607C187.872 94.706 188.521 95.3867 188.543 95.3647C188.609 95.2879 187.971 93.2569 187.663 92.5762C187.124 91.3686 186.265 90.7867 185.594 91.16Z"
          fill="currentColor"/>
    <path d="M194.746 91.5773C194.405 91.7529 194.185 91.9944 193.943 92.4116C193.624 92.9715 193.602 93.0703 193.602 94.1901C193.602 94.8488 193.646 95.4197 193.69 95.4636C193.778 95.5624 194.394 94.9257 195.319 93.7729C195.792 93.1691 196.078 92.9276 196.584 92.6861C196.937 92.5214 197.245 92.3677 197.267 92.3567C197.289 92.3348 197.278 92.203 197.234 92.0493C197.179 91.8407 197.025 91.72 196.562 91.5553C195.77 91.2589 195.33 91.2699 194.746 91.5773Z"
          fill="currentColor"/>
    <path d="M108.36 95.167C108.338 97.0113 108.756 99.0972 109.395 100.382C109.868 101.348 110.55 102.127 111.662 102.973C113.5 104.367 115.162 105.256 116.472 105.542C116.879 105.64 117.33 105.739 117.485 105.772C117.672 105.816 117.154 105.234 115.779 103.818C113.797 101.798 111.585 99.3497 110.209 97.6371C109.582 96.8576 108.977 95.8037 108.481 94.6181C108.382 94.3875 108.36 94.4863 108.36 95.167Z"
          fill="currentColor"/>
    <path d="M87.4568 95.76C86.8514 97.0884 86.026 98.0875 83.8797 100.14C81.2272 102.676 80.886 102.984 78.4866 104.982C77.4189 105.882 76.5604 106.64 76.5824 106.662C76.6815 106.76 78.6406 106.354 79.4111 106.08C79.8624 105.926 80.8419 105.476 81.6014 105.092C85.0904 103.324 86.4772 101.974 87.2036 99.6244C87.4788 98.7352 87.787 96.4846 87.743 95.7381L87.7099 95.2221L87.4568 95.76Z"
          fill="currentColor"/>
    <path d="M37.1681 96.5391C36.7389 97.5052 36.5298 98.142 36.2546 99.4155C35.9794 100.689 35.7703 103.401 35.8584 104.608C36.0455 107.133 36.926 110.57 38.1257 113.446C38.3788 114.05 38.61 114.621 38.643 114.719C38.687 114.873 38.4669 114.95 37.3883 115.202C35.9904 115.521 25.1161 118.221 24.2026 118.485C22.8598 118.869 24.3126 118.595 28.0108 117.771C33.4149 116.586 38.643 115.477 38.8851 115.477C39.0062 115.477 39.1603 115.653 39.3144 115.993C39.5125 116.432 39.5565 116.816 39.6116 118.386C39.7766 123.074 39.9968 124.787 40.7122 126.938C41.0974 128.113 41.8018 129.606 42.4622 130.627C42.8254 131.187 42.8364 131.242 42.6603 131.374C42.154 131.758 35.9024 135.48 35.8584 135.425C35.8253 135.392 35.8474 134.524 35.9134 133.492C35.9794 132.471 36.0345 130.77 36.0345 129.727L36.0235 127.828L35.4951 129.255C34.7687 131.209 34.1304 132.735 33.0407 135.128C31.819 137.796 31.808 137.829 31.3567 139.344C30.9385 140.727 30.5202 142.67 30.2891 144.295C30.069 145.832 30.102 150.158 30.3441 151.651C30.9825 155.526 32.2813 158.82 34.5156 162.212C36.0675 164.572 37.1241 165.89 39.0392 167.822C40.0848 168.876 42.2531 170.698 42.4622 170.698C42.5723 170.698 41.9559 169.535 40.382 166.746C38.8961 164.111 37.4433 161.301 36.8159 159.83C36.6178 159.38 36.3647 158.809 36.2546 158.567C35.5502 156.986 34.6146 154.055 34.2844 152.353C33.7781 149.697 33.7121 146.645 34.1083 144.021C34.3395 142.528 35.5502 136.468 35.6933 136.094C35.7703 135.886 36.1775 135.6 37.2672 134.985C41.0644 132.856 43.1336 131.725 43.1996 131.747C43.2437 131.769 43.5849 132.175 43.9591 132.658C45.8522 135.128 47.0629 135.93 50.651 137.104C51.7296 137.456 52.9293 137.917 53.3256 138.136C54.1951 138.608 54.8995 138.905 54.8224 138.784C54.7894 138.729 54.3491 138.4 53.8429 138.037C50.673 135.787 48.4937 133.47 46.6116 130.386L46.3695 129.979L49.011 128.651C50.4749 127.926 51.7516 127.334 51.8727 127.334C51.9938 127.334 52.5441 127.454 53.1164 127.597C53.6778 127.751 54.5363 127.926 55.0205 127.992C55.5048 128.058 56.5064 128.234 57.2438 128.387C58.6857 128.673 61.1511 128.871 60.964 128.684C60.909 128.618 59.9624 128.267 58.8838 127.882C56.7926 127.158 54.6133 126.236 54.5583 126.06C54.5473 126.005 54.9655 125.775 55.4938 125.533C61.2282 122.986 66.4672 120.889 70.7597 119.429L72.3116 118.902L72.4437 120C72.5978 121.295 73.0821 122.832 73.6654 123.842L74.0837 124.567L73.016 125.292C69.6371 127.575 63.2093 132.636 58.5976 136.654C52.7752 141.737 49.2422 145.184 42.5172 152.364C41.6477 153.297 40.1839 154.845 39.2593 155.812C38.3458 156.789 37.6194 157.601 37.6414 157.623C37.6634 157.656 40.349 155.032 43.6069 151.804C51.5645 143.9 55.0205 140.727 61.6794 135.227C65.4766 132.087 71.5302 127.399 73.9626 125.72L74.634 125.259L75.1183 125.753C75.3824 126.027 76.0098 126.521 76.5161 126.861C77.0884 127.235 77.3856 127.509 77.3416 127.586C77.2975 127.663 76.417 128.651 75.3824 129.804C70.5726 135.161 65.5757 141.122 59.1479 149.17C58.2344 150.322 59.0379 149.488 60.7769 147.49C64.7502 142.923 70.4405 136.468 72.2896 134.415C75.3604 131.033 78.2111 127.937 78.2991 127.904C78.3431 127.893 78.8054 127.992 79.3227 128.146C79.84 128.3 80.7976 128.486 81.4359 128.552C84.936 128.958 90.6373 127.279 93.51 124.995C93.9833 124.633 94.3465 124.314 94.3245 124.293C94.3135 124.271 93.7852 124.435 93.1468 124.644C89.9879 125.72 86.3888 126.367 83.4721 126.389C82.0963 126.389 80.2252 126.192 80.1262 126.027C80.0601 125.939 81.8542 124.018 85.4753 120.285C86.9722 118.737 88.2049 117.42 88.2049 117.354C88.2049 116.805 86.4989 118.178 83.6813 120.966C82.3715 122.262 80.7976 123.864 80.1922 124.523L79.0806 125.72L78.6073 125.522C78.09 125.325 76.7582 124.468 76.5381 124.205C76.428 124.073 76.6041 123.919 77.6607 123.239C79.4768 122.064 81.7771 120.714 83.4611 119.835C84.2756 119.407 84.892 119.045 84.8259 119.023C84.3967 118.88 80.3573 120.757 77.5067 122.426C76.6151 122.953 75.8447 123.381 75.8007 123.381C75.6796 123.381 74.9862 122.273 74.5569 121.405C74.0616 120.428 73.4343 118.639 73.5333 118.54C73.6434 118.452 75.8557 117.815 77.6938 117.354C79.6749 116.86 82.3825 116.355 83.7693 116.212C85.5303 116.037 85.2332 115.861 83.318 115.96C80.7756 116.07 77.9359 116.542 74.645 117.398L73.2472 117.749L73.1151 117.376C72.961 116.904 72.7849 116.959 72.5758 117.541L72.4217 118.002L70.7047 118.562C66.126 120.088 59.7973 122.635 55.1086 124.863L53.5457 125.599L52.6321 125.083C50.4089 123.809 48.3727 122.327 46.7767 120.845L45.9072 120.033L46.4465 119.912C50.0787 119.078 55.2737 117.947 56.6715 117.684C65.8839 115.938 76.9453 114.84 82.1734 115.148C83.219 115.202 84.2756 115.29 84.5177 115.323C85.3873 115.466 84.7489 115.169 83.6923 114.95C81.535 114.489 78.8164 114.324 75.7126 114.489C71.4201 114.697 67.1166 115.18 62.3948 115.971C57.8602 116.728 55.89 117.179 49.5834 118.88L45.7862 119.912L45.2468 119.308C43.86 117.782 41.8789 114.818 42.2531 114.818C42.2751 114.818 43.1556 114.675 44.2012 114.489C50.1447 113.479 57.2659 112.633 64.0458 112.128C67.2597 111.887 73.7865 111.788 76.318 111.953C79.9721 112.183 84.1325 112.765 85.4643 113.226C86.0366 113.435 86.2568 113.435 85.8935 113.226C85.3762 112.919 83.5712 112.403 81.9532 112.074C78.5192 111.393 75.6025 111.162 70.7047 111.151C65.6417 111.151 61.2061 111.459 54.7454 112.238C50.585 112.754 44.8286 113.654 42.066 114.225C41.7798 114.28 41.7358 114.225 41.2185 113.182C39.3034 109.395 37.8395 104.96 37.4103 101.721C37.2011 100.096 37.2011 99.4704 37.4213 97.626C37.5093 96.8136 37.5754 96.0671 37.5534 95.9573C37.5313 95.8585 37.3662 96.122 37.1681 96.5391ZM45.6101 123.842C45.9402 124.117 46.6116 124.6 47.0959 124.918C48.0095 125.533 50.3978 126.785 50.64 126.785C50.9482 126.785 50.7501 126.96 50.0897 127.301C49.7154 127.498 48.6698 128.058 47.7563 128.541C46.2154 129.376 46.1053 129.419 45.9623 129.233C45.6981 128.892 44.7736 126.883 44.3553 125.753C43.9481 124.666 43.1886 122.064 43.1886 121.746C43.1886 121.647 43.5849 121.954 44.1022 122.459C44.5975 122.942 45.2799 123.568 45.6101 123.842Z"
          fill="currentColor"/>
    <path d="M191.918 97.6699C191.665 97.8346 191.522 98.4165 191.456 99.6241C191.39 100.799 191.368 100.876 190.972 101.457C190.751 101.798 189.75 102.896 188.748 103.906C187.747 104.916 186.943 105.761 186.965 105.772C186.987 105.794 187.395 105.695 187.879 105.541C188.352 105.388 188.77 105.267 188.803 105.267C188.836 105.267 188.638 105.465 188.363 105.717L187.868 106.156L188.693 105.618C190.553 104.4 191.797 103.95 193.316 103.95C194.252 103.95 194.648 104.048 196.651 104.762C197.432 105.036 198.137 105.267 198.225 105.267C198.401 105.267 197.608 104.619 195.737 103.214C195.165 102.786 194.538 102.259 194.34 102.061C193.767 101.468 193.25 100.491 192.986 99.5253C192.744 98.6251 192.281 97.5821 192.127 97.5821C192.083 97.5821 191.995 97.626 191.918 97.6699Z"
          fill="currentColor"/>
    <path d="M271.882 98.2076C271.959 98.2406 272.058 98.2296 272.091 98.1966C272.135 98.1637 272.069 98.1307 271.948 98.1417C271.827 98.1417 271.794 98.1747 271.882 98.2076Z"
          fill="currentColor"/>
    <path d="M106.148 104.367C106.148 104.477 107.48 106.991 107.964 107.804C108.174 108.133 108.438 108.495 108.548 108.594C108.757 108.781 108.768 108.781 108.834 108.396C109.021 107.441 108.262 105.575 107.425 104.883C106.842 104.411 106.148 104.126 106.148 104.367Z"
          fill="currentColor"/>
    <path d="M103.175 104.553C102.064 104.784 99.8295 104.948 98.5307 104.915C97.8924 104.893 97.331 104.915 97.287 104.959C97.1329 105.113 97.4741 105.486 98.0465 105.761C98.982 106.222 99.9176 106.321 101.062 106.101C102.207 105.881 103.572 105.267 104.067 104.762C104.43 104.388 104.43 104.388 104.155 104.399C104.012 104.41 103.572 104.476 103.175 104.553Z"
          fill="currentColor"/>
    <path d="M94.413 105.42C93.8406 105.673 93.1802 106.343 92.8721 107.001C92.4868 107.803 92.3878 108.868 92.6519 109.285L92.85 109.57L93.3784 108.813C93.6755 108.407 94.2919 107.616 94.7431 107.078C95.2054 106.529 95.6127 105.98 95.6457 105.838C95.7888 105.311 95.1614 105.102 94.413 105.42Z"
          fill="currentColor"/>
    <path d="M105.539 108.494C105.132 108.67 104.526 109.34 104.317 109.834C104.13 110.262 104.119 110.976 104.284 110.976C104.493 110.976 106.309 110.196 106.727 109.922C107.421 109.472 107.509 108.813 106.904 108.505C106.529 108.308 105.979 108.297 105.539 108.494Z"
          fill="currentColor"/>
    <path d="M95.3934 108.999C95.2613 109.054 95.0632 109.23 94.9642 109.384C94.7881 109.658 94.7881 109.68 94.9972 109.889C95.1953 110.086 98.5082 111.524 98.7614 111.524C99.0585 111.524 98.6403 110.734 97.9799 110.02C97.1104 109.109 96.1198 108.714 95.3934 108.999Z"
          fill="currentColor"/>
    <path d="M184.346 109.11C184.137 109.45 184.082 109.977 184.192 110.625C184.798 114.467 189.167 118.683 193.493 119.594C194.769 119.868 197.092 119.923 198.434 119.726C199.678 119.539 204.103 118.529 204.103 118.43C204.103 118.397 203.046 118.288 201.769 118.178C197.147 117.794 195.044 117.453 193.096 116.773C190.18 115.741 187.879 113.863 185.975 110.943C184.753 109.077 184.522 108.813 184.346 109.11Z"
          fill="currentColor"/>
    <path d="M261.084 111.382C260.93 111.525 261.018 112.052 261.282 112.579C261.634 113.281 262.437 114.258 264.551 116.531C266.532 118.661 268.128 120.582 269.283 122.196C270.164 123.447 272.596 127.224 272.541 127.279C272.519 127.301 272.09 127.169 271.573 126.993C271.055 126.829 270.164 126.609 269.592 126.51C268.513 126.346 266.356 126.302 265.574 126.433L265.145 126.51L266.29 127.037C267.621 127.652 269.096 128.256 271.022 128.947C271.782 129.222 272.651 129.562 272.96 129.694C273.73 130.034 275.183 131.011 275.623 131.494L275.986 131.89L275.909 131.176C275.656 128.673 274.346 125.577 272.123 122.24C270.164 119.33 268.018 116.816 265.475 114.5C262.547 111.832 261.425 111.031 261.084 111.382Z"
          fill="currentColor"/>
    <path d="M101.215 113.215C101.072 113.544 100.598 115.872 100.312 117.749C100.125 118.99 100.07 119.154 99.6189 119.835C99.3547 120.252 98.7053 121.119 98.188 121.778C97.6597 122.437 97.2305 123.019 97.2305 123.074C97.2305 123.227 97.7478 123.172 98.3091 122.953C99.6739 122.415 101.028 122.426 103.031 123.008C103.548 123.15 103.999 123.249 104.032 123.216C104.065 123.183 103.944 122.975 103.757 122.744C103.24 122.097 102.348 120.746 102.007 120.087L101.699 119.484L101.721 117.508C101.754 115.586 101.622 113.676 101.435 113.182L101.347 112.93L101.215 113.215Z"
          fill="currentColor"/>
    <path d="M201.165 119.539C200.911 119.594 200.603 119.693 200.482 119.759C200.361 119.825 199.8 120.022 199.238 120.209C198.182 120.549 197.543 120.901 196.784 121.57L196.344 121.955L196.729 121.878C197.246 121.779 197.246 121.779 198.875 121.878C201.539 122.042 203.388 122.558 205.963 123.887C207.449 124.644 210.531 126.533 211.621 127.345C212.391 127.938 214.405 129.859 215.429 131.012L216.122 131.78L214.89 129.365C214.207 128.037 213.437 126.631 213.162 126.258C212.38 125.16 209.992 122.778 208.726 121.834C206.987 120.527 205.523 119.847 203.839 119.55C203.08 119.408 201.836 119.408 201.165 119.539Z"
          fill="currentColor"/>
    <path d="M187.442 121.23C182.6 124.447 178.461 126.543 174.389 127.817C172.584 128.388 170.019 128.992 166.871 129.595C165.374 129.892 164.208 130.155 164.285 130.199C164.56 130.342 167.51 130.957 168.445 131.067C171.065 131.363 174.114 131.012 176.964 130.068C182.038 128.388 188.961 123.206 189.413 120.736C189.468 120.461 189.435 120.308 189.324 120.22C189.203 120.121 188.829 120.319 187.442 121.23Z"
          fill="currentColor"/>
    <path d="M109.867 128.179C109.767 128.289 109.481 128.97 109.228 129.694C108.7 131.198 108.238 132.099 107.522 132.977C105.409 135.557 100.456 137.193 93.3239 137.654C92.3003 137.72 91.2767 137.807 91.0676 137.84C90.7154 137.895 90.7594 137.928 91.6729 138.159C96.8129 139.498 102.756 139.059 106.234 137.083C107.269 136.49 108.623 135.239 109.272 134.261C110.329 132.692 110.835 130.704 110.571 129.189C110.373 128.037 110.208 127.795 109.867 128.179Z"
          fill="currentColor"/>
    <path d="M272.014 130.221C272.014 130.331 272.08 130.561 272.168 130.726C272.62 131.593 273.61 135.732 273.995 138.367C274.37 140.903 274.447 142.242 274.513 146.82C274.579 151.596 274.502 153.418 274.095 156.306C273.423 161.092 272.433 164.353 270.407 168.393C269.725 169.754 269.186 170.874 269.208 170.896C269.263 170.951 271.904 167.46 272.642 166.362C273.764 164.682 275.426 161.839 275.977 160.675C277.352 157.744 278.024 154.845 278.145 151.255C278.222 149.049 278.079 147.226 277.672 145.009C276.956 141.166 275.47 136.588 273.775 133.097C272.994 131.472 272.025 129.892 272.014 130.221Z"
          fill="currentColor"/>
    <path d="M188.267 136.105C187.97 136.291 188.234 136.753 189.005 137.356C189.412 137.686 191.129 138.86 192.824 139.98C197.458 143.01 199.461 144.525 202.257 147.061C204.986 149.542 207.375 152.32 209.466 155.438C211.139 157.941 212.228 159.84 214.353 163.968C215.101 165.439 215.751 166.636 215.795 166.636C215.839 166.636 215.85 166.57 215.828 166.493C215.795 166.427 215.651 165.516 215.486 164.495C214.595 158.676 212.405 153.824 208.684 149.378C204.931 144.909 199.571 140.716 194.09 137.982C191.437 136.654 188.752 135.786 188.267 136.105Z"
          fill="currentColor"/>
    <path d="M81.3262 141.814C83.2743 142.769 84.2319 143.318 86.224 144.646C87.5888 145.558 89.0527 146.59 89.4709 146.93C92.3876 149.268 96.559 153.264 98.243 155.328C99.3877 156.723 100.51 158.369 101.017 159.368C101.556 160.444 102.381 162.717 103.284 165.593C103.724 166.976 104.109 168.14 104.131 168.173C104.164 168.206 104.164 167.767 104.131 167.207C104.087 166.504 104.12 165.879 104.242 165.231C104.671 162.805 104.054 159.401 102.624 156.371C102.194 155.471 102.15 155.295 102.106 154.285L102.051 153.188L102.503 152.518C103.086 151.64 103.636 151.2 105.001 150.52C107.775 149.126 111.286 146.315 114.136 143.186L115.006 142.231L113.575 142.978C112.254 143.669 111.374 144.163 108.083 146.063C106.179 147.16 103.559 148.192 101.292 148.741C99.949 149.071 98.177 149.093 97.0323 148.807C96.3279 148.632 96.0968 148.5 94.9081 147.578C93.3782 146.392 91.9033 145.404 90.4285 144.57C89.2398 143.911 86.6753 142.67 86.114 142.495C83.3183 141.616 79.411 140.595 78.9818 140.617C78.9378 140.628 79.9944 141.166 81.3262 141.814Z"
          fill="currentColor"/>
    <path d="M58.4773 150.026C58.3345 150.201 58.3454 150.212 58.5213 150.07C58.6972 149.927 58.7521 149.839 58.6642 149.839C58.6422 149.839 58.5543 149.927 58.4773 150.026Z"
          fill="currentColor"/>
    <path d="M213.6 151.552C213.567 151.651 213.842 152.803 214.206 154.11C215.251 157.799 215.548 159.423 216.264 165.429C216.935 171.082 217.64 174.277 218.949 177.56C219.28 178.383 221.173 181.929 221.239 181.852C221.261 181.83 221.074 180.359 220.843 178.581C220.6 176.802 220.204 173.597 219.951 171.456C219.159 164.517 218.729 161.817 217.97 158.864C216.979 155.054 215.526 152.222 214.206 151.53C213.82 151.332 213.688 151.332 213.6 151.552Z"
          fill="currentColor"/>
    <path d="M29.7504 159.709C28.2205 160.862 26.1293 163.321 24.9846 165.297C23.5538 167.778 22.6953 171.148 22.6953 174.211C22.7063 175.836 23.0145 177.856 23.5428 179.591C23.6969 180.107 24.0381 181.347 24.3133 182.346C24.5774 183.345 24.9296 184.509 25.0837 184.926C25.2378 185.344 25.601 186.617 25.8982 187.77C26.1954 188.911 26.4485 189.768 26.4485 189.669C26.4595 189.57 26.3054 188.626 26.1293 187.583C25.656 184.849 25.4359 182.105 25.4359 178.822C25.4359 174.08 26.0413 170.204 27.3951 166.307C28.0114 164.528 29.3982 161.312 30.0146 160.236C30.3118 159.709 30.5429 159.248 30.5099 159.226C30.4879 159.193 30.1357 159.413 29.7504 159.709Z"
          fill="currentColor"/>
    <path d="M31.3169 164.989C31.3059 166.548 31.471 168.81 31.8562 172.674C32.2194 176.209 32.3845 177.329 32.8028 178.965C33.21 180.622 33.4632 181.061 34.7839 182.379C37.6566 185.255 41.3768 187.627 45.5482 189.262C46.1536 189.493 46.6599 189.669 46.6819 189.647C46.7039 189.625 46.0215 189.076 45.152 188.417C39.6378 184.256 37.8988 181.929 34.7069 174.431C33.6503 171.96 32.8358 169.424 32.0764 166.339C31.8452 165.373 31.5701 164.407 31.482 164.199C31.3279 163.847 31.3279 163.88 31.3169 164.989Z"
          fill="currentColor"/>
    <path d="M277.738 166.768C276.45 167.669 275.008 168.909 273.501 170.424C271.883 172.027 271.828 172.104 271.222 173.333C269.494 176.847 268.812 179.745 268.801 183.653C268.801 186.233 269.076 188.045 269.736 189.801L270 190.515L270.243 189.197C271.266 183.653 271.673 181.919 272.664 178.943C273.688 175.869 274.425 174.278 276.681 170.205C277.881 168.042 278.398 166.955 278.398 166.582C278.398 166.351 278.299 166.384 277.738 166.768Z"
          fill="currentColor"/>
    <path d="M131.846 173.135C128.016 173.366 124.703 174.485 121.996 176.473C120.807 177.34 120.4 177.768 119.684 178.844C117.956 181.446 116.283 187.275 116.592 189.636L116.658 190.185L116.955 189.416C117.12 188.988 117.483 188.022 117.758 187.242C118.044 186.474 118.298 185.848 118.331 185.848C118.364 185.848 118.364 185.925 118.331 186.002C118.298 186.09 118.617 185.782 119.057 185.321C123.647 180.414 129.909 175.001 131.637 174.442C132.001 174.321 132.881 174.035 133.608 173.816L134.928 173.399L134.378 173.311C134.081 173.256 133.685 173.179 133.497 173.135C133.321 173.091 132.573 173.091 131.846 173.135Z"
          fill="currentColor"/>
    <path d="M74.4478 177.351C73.6774 177.603 73.3692 177.867 71.4431 179.952C66.8093 184.992 63.2873 189.317 58.6426 195.674C55.946 199.362 51.9727 205.554 50.1676 208.848C49.8264 209.473 49.6173 209.77 49.5953 209.638C49.5733 209.506 48.5057 208.924 46.2383 207.794C43.7729 206.553 42.9694 206.114 43.1015 206.037C43.2006 205.982 43.5638 205.433 43.916 204.819C46.0512 201.02 49.3642 195.597 51.0151 193.149C51.5324 192.38 52.3029 191.491 53.6237 190.151C56.6724 187.066 58.5215 184.827 59.336 183.235C59.6772 182.554 59.7542 182.28 59.7873 181.61C59.8313 180.941 59.7983 180.743 59.6001 180.436C59.27 179.898 58.8737 179.755 58.1363 179.909C57.2668 180.095 56.5073 180.578 55.7039 181.478C54.7463 182.543 52.512 185.343 50.4318 188.077C49.5073 189.295 48.5057 190.558 48.1975 190.887C47.5261 191.601 46.3044 192.435 43.927 193.796C39.9427 196.069 39.5574 196.244 34.7697 197.814C23.2239 201.624 15.4094 204.489 13.2301 205.73C10.5665 207.256 6.57121 210.472 4.86521 212.492C3.01613 214.688 1.75039 216.544 0.924913 218.256C0.286541 219.606 0.0113804 220.562 0.000373937 221.528C-0.0106325 222.307 0.220502 222.889 0.803843 223.603C1.09001 223.954 1.13404 223.965 1.61832 223.899C2.48783 223.767 2.93909 223.361 3.74256 221.967C4.59005 220.507 6.28504 217.916 7.12153 216.774C8.59639 214.798 11.425 211.614 12.6247 210.582C14.3968 209.078 16.7742 207.541 19.2946 206.29C21.7381 205.071 23.1359 204.511 27.0652 203.139C35.8373 200.087 41.8798 197.584 44.9286 195.75C45.4239 195.443 45.8311 195.223 45.8311 195.245C45.8311 195.267 44.3893 197.562 42.6282 200.339C40.0968 204.336 39.3813 205.389 39.2383 205.335C37.9395 204.819 31.952 204.544 29.6187 204.895C27.6375 205.192 26.3718 205.785 25.4032 206.85C24.9079 207.398 24.8969 207.431 24.9409 208.013C24.9849 208.485 25.051 208.661 25.2931 208.859C25.9205 209.408 27.2523 209.583 28.496 209.298C30.8514 208.738 34.2303 208.277 36.6297 208.167C38.1156 208.112 38.3798 208.123 38.3247 208.255C38.2147 208.54 32.3923 217.949 31.4347 219.387C30.136 221.341 27.5494 224.744 25.8104 226.797C24.4676 228.389 24.3796 228.532 24.3686 228.96C24.3686 229.421 24.3796 229.432 24.7318 229.432C25.5793 229.432 27.1422 228.675 28.463 227.632C29.5636 226.764 33.8891 221.33 36.8939 217.059C38.4568 214.831 40.3059 211.933 41.4285 209.978C42.1219 208.749 42.243 208.595 42.3861 208.738C42.4742 208.826 42.6613 208.903 42.8153 208.903C43.3106 208.903 48.7148 210.857 48.8579 211.087C48.8799 211.142 48.4616 211.966 47.9113 212.921C45.2148 217.641 43.3437 222.142 42.5622 225.765C42.287 227.072 42.265 227.368 42.265 229.542C42.265 231.606 42.298 232.023 42.5072 232.879C42.9694 234.713 43.927 236.425 45.0276 237.359C46.9978 239.038 49.3972 240.191 51.9727 240.707C53.4365 241.003 56.5183 240.97 58.0482 240.641C60.9429 240.026 63.9477 238.687 66.16 237.018C67.5688 235.953 69.3959 234.252 70.5185 232.945C73.5343 229.454 74.9871 225.985 75.0201 222.241C75.0311 220.913 74.833 219.486 74.5028 218.553L74.3377 218.091L74.745 217.751C74.9761 217.564 75.6145 217.005 76.1758 216.5C76.7261 216.006 77.2104 215.599 77.2434 215.599C77.2765 215.599 77.3095 215.995 77.3095 216.478C77.3095 218.004 77.9258 219.222 79.0815 220.013C79.973 220.627 80.8095 220.803 82.4825 220.726C86.2797 220.562 91.2216 218.443 96.5487 214.677C97.099 214.282 97.5613 213.975 97.5613 213.997C97.5613 214.018 97.3412 214.469 97.066 215.007C96.0534 216.972 95.6902 218.75 96.1084 219.683C96.5817 220.77 97.7154 221.1 98.6399 220.43C99.2012 220.024 100.401 218.596 101.678 216.807C102.899 215.094 102.921 215.083 102.58 215.841C102.217 216.664 102.03 217.773 102.107 218.629C102.217 219.815 102.602 220.243 103.67 220.397C104.088 220.452 104.22 220.419 104.539 220.166C104.815 219.969 104.969 219.727 105.046 219.409C105.266 218.553 105.519 218.113 106.245 217.4C106.884 216.763 109.415 214.941 109.657 214.941C109.712 214.941 109.811 215.347 109.877 215.841C110.329 219.003 112.222 220.759 115.172 220.759C116.69 220.759 118.892 220.32 120.411 219.716C123.36 218.553 126.937 216.587 129.634 214.655C130.349 214.15 130.955 213.744 130.977 213.766C130.999 213.777 130.768 214.282 130.47 214.875C129.656 216.489 129.326 217.564 129.403 218.377C129.48 219.178 129.876 219.815 130.537 220.177C130.966 220.419 131.01 220.419 131.527 220.265C132.518 219.969 133.607 218.882 134.895 216.917C135.346 216.236 135.621 215.896 135.566 216.093C135.522 216.269 135.478 216.763 135.478 217.191C135.489 218.816 136.491 219.859 138.659 220.474C139.793 220.803 140.717 220.836 142.192 220.595C145.802 220.013 149.578 218.212 155.488 214.238C155.796 214.029 155.796 214.04 155.301 215.028C154.354 216.895 153.98 218.465 154.244 219.42C154.321 219.716 154.531 220.046 154.817 220.331C155.213 220.715 155.323 220.759 155.807 220.759C156.512 220.759 156.831 220.584 157.601 219.749C158.218 219.09 160.034 216.719 160.683 215.731C160.848 215.479 161.002 215.27 161.013 215.27C161.035 215.27 160.925 215.577 160.771 215.94C160.243 217.235 160.188 218.992 160.639 219.727C160.881 220.122 161.255 220.32 161.949 220.386C162.389 220.441 162.488 220.408 162.851 220.111C163.149 219.859 163.27 219.661 163.325 219.299C163.369 219.047 163.512 218.64 163.655 218.388C164.04 217.718 165.361 216.544 166.671 215.687C167.76 214.985 168.002 214.853 168.002 215.007C168.002 215.039 168.057 215.424 168.123 215.852C168.498 218.443 169.763 220.046 171.877 220.606C173.208 220.957 176.18 220.627 178.128 219.914C182.553 218.289 187.341 215.369 192.084 211.406L193.647 210.088V209.495V208.903H193.042C192.437 208.903 192.404 208.914 191.182 209.88C184.864 214.798 179.229 217.916 175.465 218.564C174.331 218.761 172.823 218.673 172.438 218.388C171.855 217.949 171.679 217.564 171.535 216.357C171.469 215.731 171.315 214.798 171.183 214.282C170.589 211.757 169.433 211.373 166.858 212.855C166.439 213.096 166.076 213.272 166.054 213.25C166.032 213.228 166.164 212.987 166.351 212.712C166.869 211.933 167.122 211.307 167.122 210.725C167.122 210.275 167.056 210.11 166.715 209.66C166.241 209.034 166.032 208.99 165.24 209.397C164.194 209.913 163.303 210.582 161.465 212.251C160.925 212.734 160.54 213.03 160.595 212.91C160.661 212.789 160.947 212.306 161.222 211.834C161.498 211.362 161.729 210.857 161.729 210.714C161.729 210.231 161.41 209.616 161.035 209.397C160.837 209.287 160.639 209.133 160.595 209.045C160.54 208.957 160.298 208.903 159.99 208.903C159.483 208.903 159.373 208.968 157.172 210.604C151.372 214.919 146.771 217.51 143.293 218.454C142.225 218.739 140.464 218.86 139.914 218.684C139.254 218.465 139.055 218.201 139.055 217.521C139.055 216.697 139.342 215.984 140.673 213.546C142.016 211.087 142.644 209.704 142.82 208.848L142.952 208.244L142.357 207.64C141.873 207.157 141.675 207.025 141.279 206.97C140.365 206.839 140.134 207.069 138.087 210.165C136.568 212.46 134.334 215.533 134.246 215.446C134.224 215.424 134.488 214.897 134.829 214.271C136.491 211.23 137.405 209.166 137.405 208.474C137.405 207.904 136.975 207.53 136.194 207.42C135.688 207.355 135.577 207.377 135.225 207.629C135.005 207.783 134.565 208.222 134.268 208.606C133.365 209.715 129.502 212.58 126.002 214.732C122.106 217.136 118.694 218.509 116.316 218.64C114.962 218.717 114.511 218.64 114.071 218.267C113.576 217.861 113.444 217.532 113.311 216.368C113.036 213.997 112.585 212.701 111.87 212.218C111.55 211.998 111.385 211.966 110.879 212.009C110.241 212.064 109.151 212.503 108.216 213.074C107.643 213.426 107.643 213.415 108.16 212.646C108.821 211.68 109.063 210.582 108.755 210.044C108.469 209.55 108.017 209.122 107.797 209.122C107.148 209.122 105.42 210.275 103.56 211.944C102.338 213.041 102.261 213.096 102.525 212.635C103.494 210.977 103.527 210.901 103.45 210.44C103.307 209.605 102.767 209.188 101.678 209.067L101.028 209.001L99.3113 210.297C92.0691 215.753 86.1586 218.783 82.7246 218.783C80.7765 218.783 79.929 217.828 80.4463 216.236C80.5454 215.918 81.1727 214.688 81.8221 213.502C83.0878 211.241 83.6822 210.011 83.7152 209.616C83.7482 209.287 83.297 208.595 82.9227 208.409C82.7577 208.321 82.4165 208.222 82.1853 208.178C81.635 208.09 81.2718 208.277 80.6114 208.946L80.1271 209.451L79.8079 209.144C79.5108 208.859 79.4557 208.848 78.3221 208.859C77.2875 208.859 77.0563 208.903 76.4069 209.166C75.4274 209.572 74.6239 210.143 73.017 211.592C70.9147 213.47 69.4289 215.204 68.7025 216.609C68.3833 217.213 68.3392 217.411 68.3392 218.124C68.3392 219.101 68.5484 219.486 69.3408 219.947C69.8471 220.243 70.2654 220.298 70.9478 220.166C71.355 220.09 71.355 220.101 71.4761 220.551C72.6648 224.931 71.377 229.059 67.6899 232.77C64.476 236.008 61.1961 237.907 57.641 238.621C56.9586 238.753 56.1221 238.808 54.8013 238.819C52.6661 238.819 52.1708 238.72 50.784 237.984C47.7572 236.36 46.2714 233.747 46.2714 230.025C46.2714 228.049 46.7777 225.908 47.9884 222.845C48.7478 220.935 50.9601 216.379 52.3909 213.799C53.0843 212.536 53.2604 212.306 53.3265 212.492C53.3815 212.657 53.7117 212.811 54.6362 213.118C56.9476 213.865 58.9728 214.172 61.6033 214.172C63.6725 214.172 65.0923 214.029 66.4681 213.678C68.4493 213.184 69.638 212.558 70.7717 211.45L71.4761 210.758V210.066C71.4761 209.221 71.2559 208.957 70.3644 208.771C69.7921 208.661 69.704 208.672 68.2292 209.155C65.0153 210.198 61.9555 210.988 59.9854 211.274C58.7637 211.461 57.9822 211.45 54.8784 211.219L53.9538 211.153L57.4099 205.993C61.6804 199.626 61.8565 199.384 65.9288 194.005C72.6207 185.167 75.9227 180.392 76.3189 178.986C76.451 178.514 76.44 178.47 76.1648 178.042C75.7576 177.438 75.0532 177.164 74.4478 177.351ZM56.7275 183.586C56.7275 183.949 55.6158 185.595 53.8988 187.758C52.6991 189.273 52.578 189.416 52.7652 189.032C53.0403 188.494 55.8139 184.355 56.1661 183.949C56.4743 183.597 56.7275 183.433 56.7275 183.586ZM77.5296 212.723C77.1444 213.063 76.2308 213.92 75.4934 214.611C73.2811 216.73 73.4022 216.631 73.138 216.456C73.017 216.379 72.9069 216.258 72.9069 216.192C72.9069 215.984 75.3723 213.481 76.0878 212.965C76.7592 212.471 77.6066 212.097 78.0249 212.097C78.19 212.097 78.0579 212.262 77.5296 212.723Z"
          fill="currentColor"/>
    <path d="M262.272 181.183C258.32 182.204 253.323 184.333 250.065 186.375C245.883 189.01 240.776 193.786 233.798 201.624L233.391 202.085L232.422 201.361C230.045 199.571 227.865 198.452 225.642 197.881C222.131 196.97 218.939 197.881 219.225 199.703C219.269 199.956 219.38 200.285 219.479 200.45C219.809 201.01 220.062 201.075 222.373 201.152C226.115 201.284 228.57 201.668 230.386 202.415C231.189 202.744 232.059 203.249 232.059 203.392C232.059 203.589 228.537 207.377 226.005 209.902C223.023 212.888 221.251 214.546 217.828 217.51C216.562 218.608 214.999 219.958 214.361 220.518C209.793 224.492 205.247 227.039 201.681 227.621C200.448 227.819 198.412 227.841 197.818 227.654C196.068 227.138 195.507 224.701 196.464 221.781C197.323 219.146 200.03 215.051 203.112 211.735C205.324 209.364 207.713 207.948 208.56 208.508C209.066 208.837 209.21 209.364 209.21 210.879C209.21 211.988 209.166 212.394 208.967 213.02C208.252 215.303 205.908 218.136 203.354 219.816C202.033 220.683 201.12 221.418 200.801 221.858C200.537 222.231 200.47 223.098 200.68 223.482C200.988 224.053 202.331 224.218 203.574 223.834C205.126 223.362 206.524 222.066 208.153 219.629C210.233 216.489 211.213 214.03 211.334 211.593C211.466 209.046 210.574 206.927 209.033 206.147C207.041 205.137 204.851 205.642 201.956 207.794C200.702 208.727 197.466 211.911 196.354 213.294C194.065 216.16 192.634 218.959 192.15 221.495C191.896 222.879 191.985 225.469 192.326 226.468C193.118 228.785 194.571 230.168 196.794 230.717C197.95 230.992 200.515 230.97 202.011 230.651C205.478 229.916 209.089 228.104 212.754 225.25C217.321 221.682 224.013 215.15 231.553 206.894L233.622 204.621L235.493 206.433C236.517 207.432 237.54 208.387 237.771 208.552L238.189 208.848L236.99 210.824C233.787 216.16 231.784 221.001 231.123 225.041C230.672 227.863 231.266 231.606 232.642 234.592C233.402 236.261 235.394 238.523 237.155 239.73C240.193 241.816 243.99 242.475 248.37 241.663C253.797 240.664 258.463 237.425 262.272 232.013C264.33 229.092 266.399 223.987 266.905 220.617L267.092 219.354L267.445 219.728C267.632 219.925 268.039 220.2 268.336 220.321C270.328 221.177 272.298 220.09 273.674 217.378C273.938 216.851 274.158 216.412 274.158 216.401C274.169 216.39 274.467 216.489 274.819 216.632C277.967 217.894 282.81 216.522 288.335 212.833C288.874 212.471 289.336 212.197 289.358 212.229C289.38 212.251 289.281 212.559 289.127 212.899C288.643 213.997 288.412 215.018 288.412 216.094C288.412 216.961 288.445 217.137 288.676 217.477C289.435 218.586 291.229 218.553 292.561 217.411C292.814 217.203 293.045 217.027 293.078 217.027C293.112 217.027 292.902 217.411 292.616 217.872L292.077 218.729L289.997 219.036C287.3 219.431 283.503 220.2 281.423 220.76C279.331 221.331 277.956 221.88 275.523 223.087C269.866 225.898 266.85 229.037 266.366 232.583C266.069 234.867 266.927 236.667 268.743 237.546C269.932 238.128 270.68 238.27 272.452 238.27C274.346 238.259 275.655 237.985 277.647 237.172C281.368 235.646 283.712 234.077 287.487 230.552C289.909 228.291 293.585 223.801 295.181 221.144C295.28 220.99 295.577 220.946 297.019 220.859C300.926 220.639 304.393 219.827 307.981 218.279C311.789 216.643 315.961 213.843 319.153 210.78C319.978 209.99 320 209.946 320 209.452V208.936L319.505 209.024C318.657 209.177 317.733 209.726 316.478 210.824C315.565 211.615 312.769 213.47 310.92 214.513C307.068 216.687 302.929 218.114 299.055 218.619C298.34 218.707 297.536 218.784 297.261 218.784H296.766L297.184 218.147C300.046 213.734 302.203 209.441 301.983 208.574C301.818 207.882 300.64 207.256 299.825 207.421C298.78 207.651 298.263 208.124 296.017 210.967C293.067 214.7 291.692 216.302 291.395 216.346C291.174 216.379 291.152 216.357 291.218 216.127C291.428 215.446 291.978 214.282 292.649 213.108C293.948 210.857 295.016 208.716 295.016 208.343C295.016 207.849 294.707 207.267 294.333 207.081C294.157 206.993 293.706 206.894 293.332 206.85L292.649 206.795L291.791 208.091L290.943 209.397L289.6 210.231C284.648 213.305 280.795 214.963 278 215.227C277.185 215.303 275.655 215.062 275.105 214.776L274.819 214.634L274.852 213.272C274.918 211.187 274.533 210.133 273.663 209.968L273.344 209.902L273.916 209.364C274.225 209.068 275.006 208.541 275.644 208.189C278.924 206.378 282.38 203.809 284.56 201.58C287.74 198.331 289.633 195.586 290.239 193.314C290.514 192.315 290.514 190.437 290.25 189.899C290.019 189.438 289.303 189.032 288.731 189.032C286.508 189.043 283.459 191.458 278.022 197.54C271.187 205.17 267.39 211.088 266.685 215.161L266.542 215.984L266.289 215.49C266.157 215.227 265.772 214.744 265.441 214.425C264.858 213.854 264.836 213.843 264.198 213.843C263.669 213.843 263.493 213.898 263.229 214.118C262.745 214.524 262.712 215.029 263.031 216.566C264.044 221.353 264.055 223.12 263.086 225.898C262.062 228.829 259.905 231.991 257.065 234.713C254.369 237.304 251.661 238.786 248.337 239.5C246.995 239.785 243.759 239.785 242.68 239.489C240.336 238.863 238.123 237.183 236.869 235.087C236.23 234.011 235.647 232.221 235.405 230.64C235.185 229.125 235.24 226.04 235.526 224.383C236.076 221.166 237.364 217.664 239.147 214.557C239.906 213.25 241.37 210.989 241.469 210.989C241.502 210.989 242.185 211.307 242.977 211.692C246.224 213.261 249.119 213.799 253.158 213.602C257.979 213.36 261.171 212.383 262.393 210.791C263.295 209.617 263.086 208.705 261.699 207.717L261.38 207.487L260.334 207.992C258.408 208.903 255.569 210.078 254.039 210.594C250.495 211.768 248.249 211.845 245.531 210.868C244.672 210.55 242.79 209.65 242.581 209.452C242.416 209.287 244.716 206.191 248.172 201.932C250.913 198.55 255.348 193.248 256.812 191.612C258.452 189.757 261.93 186.299 263.537 184.926C265.298 183.411 265.739 182.829 265.739 182.017C265.739 181.677 265.662 181.479 265.397 181.183C265.078 180.82 265.023 180.798 264.374 180.798C263.978 180.809 263.119 180.963 262.272 181.183ZM256.482 185.706C256.284 185.936 255.293 186.99 254.281 188.044C247.666 194.96 242.427 201.438 239.455 206.378L238.894 207.311L236.869 205.335L234.833 203.359L235.9 202.261C239.741 198.287 244.397 193.632 245.41 192.765C248.183 190.382 251.023 188.33 253.576 186.891C254.82 186.189 256.548 185.321 256.757 185.31C256.801 185.299 256.68 185.486 256.482 185.706ZM288.192 192.457C288.192 192.798 287.861 193.786 287.542 194.401C286.464 196.519 284.648 198.748 281.962 201.24C279.376 203.633 276.58 205.928 276.437 205.774C276.415 205.752 276.69 205.39 277.053 204.984C277.427 204.578 278.847 202.81 280.223 201.064C281.588 199.308 283.316 197.167 284.042 196.289C285.781 194.192 287.619 192.326 287.95 192.326C288.082 192.326 288.192 192.392 288.192 192.457ZM271.462 213.448C271.528 213.777 271.726 214.25 271.913 214.491C272.089 214.744 272.232 215.029 272.232 215.128C272.232 215.238 271.935 215.841 271.583 216.478C270.934 217.609 270.372 218.344 270.152 218.344C269.976 218.344 270.009 217.521 270.207 216.467C270.361 215.622 271.198 212.855 271.297 212.855C271.319 212.855 271.396 213.119 271.462 213.448ZM290.448 221.385C289.171 223.351 284.912 228.456 283.668 229.499C283.404 229.718 282.512 230.41 281.687 231.025C278.627 233.308 275.975 234.724 273.509 235.383C272.827 235.57 272.287 235.624 271.242 235.624C269.965 235.635 269.833 235.613 269.382 235.361C268.655 234.944 268.468 234.527 268.523 233.385C268.578 232.254 268.853 231.486 269.591 230.388C270.824 228.565 274.092 225.854 276.272 224.866C280.96 222.714 286.508 221.188 289.942 221.111L290.635 221.089L290.448 221.385Z"
          fill="currentColor"/>
</svg>
