<svg width="591" height="563" viewBox="0 0 591 563" fill="none" xmlns="http://www.w3.org/2000/svg">
<path d="M133.003 66.8942C125.701 66.0344 118.36 69.7053 112.788 76.9853C110.166 80.4106 107.88 85.016 106.993 88.6549C105.232 95.8419 106.538 102.462 110.526 106.684C111.88 108.111 113.378 109.147 114.958 109.726C116.218 110.188 117.409 110.372 118.863 110.334C127.635 110.094 135.783 104.256 140.559 94.7816C141.395 93.1117 142.592 89.7029 143.087 87.5693C143.825 84.3938 143.977 82.6105 143.721 80.1381C143.32 76.2593 141.955 72.9998 139.703 70.5882C138.343 69.1171 137.091 68.2561 135.234 67.5011C134.182 67.0834 133.893 66.9986 133.003 66.8942Z" fill="#FEE9C6"/>
<path d="M93.6174 55.0697C89.528 54.3521 84.9707 55.9576 81.2906 59.4176C77.8414 62.6557 75.249 68.0369 74.1339 74.2769C72.7097 82.2324 74.2455 89.9415 78.3855 95.5825C79.2952 96.8252 80.9299 98.5347 82.1199 99.4786C82.9629 100.147 83.1937 100.274 84.2392 100.71C85.6292 101.284 86.6832 101.522 88.0585 101.583C90.1895 101.677 92.099 101.299 94.099 100.384C98.0606 98.5703 101.455 94.8998 103.754 89.9397C104.696 87.896 105.656 84.6964 106.094 82.0769C107.702 72.6031 105.415 63.8576 99.9623 58.6547C97.8361 56.6275 95.7408 55.4468 93.6174 55.0697Z" fill="#FEE9C6"/>
<path d="M150.909 106.815C144.321 105.551 137.277 107.798 131.521 113.023C128.788 115.499 126.972 117.835 124.949 121.459C124.223 122.768 123.995 123.276 123.414 124.859C122.703 126.798 122.464 127.799 122.294 129.512C121.834 134.111 123.128 138.465 125.74 141.146C127.166 142.61 128.633 143.497 130.468 143.99C134.921 145.201 139.475 144.682 144.182 142.434C149.371 139.951 153.928 135.554 156.835 130.246C157.567 128.919 158.726 126.225 159.073 125.073C160.854 119.141 159.58 112.902 155.891 109.435C154.461 108.096 152.691 107.162 150.909 106.815Z" fill="#FEE9C6"/>
<path d="M57.2151 75.4246C52.8752 74.6045 48.3948 76.1748 45.7516 79.4548C44.815 80.6124 43.7451 82.3659 42.9531 84.031C40.0771 90.0692 39.7136 97.8957 41.981 104.657C42.4822 106.142 43.634 108.615 44.4626 109.933C46.3642 113.009 49.0393 115.692 51.8399 117.364C52.5845 117.807 54.4814 118.481 55.3046 118.593C58.9469 119.104 62.6504 117.82 65.5014 115.049C67.2568 113.346 68.7317 110.896 69.8697 107.793C70.5702 105.883 70.8589 104.805 71.1697 102.91C72.3829 95.6175 70.5393 87.7004 66.2745 81.8762C65.1117 80.2763 63.324 78.3733 62.2562 77.5906C60.9183 76.6136 58.8812 75.7396 57.2151 75.4246Z" fill="#FEE9C6"/>
<path d="M97.4683 109.638C94.0627 108.801 90.5101 108.481 86.8133 108.7C81.1598 109.047 75.1562 110.873 70.7042 113.616C61.095 119.542 53.2359 126.893 48.3318 134.534C48.031 135.005 47.5499 135.706 47.2671 136.099C45.8066 138.132 44.9669 140.741 44.9614 143.287C44.952 147.385 46.7725 151.234 49.8682 153.702C51.7182 155.173 54.8717 156.319 58.6457 156.879C61.1015 157.251 63.0111 157.338 68.5159 157.338C76.1799 157.327 78.2254 157.538 82.921 158.784C85.0204 159.343 85.3906 159.468 86.7541 160.084C90.2445 161.65 92.7912 163.461 97.4198 167.654C101.52 171.367 103.823 173.406 104.432 173.841C110.505 178.224 118.086 178.352 122.246 174.137C124.068 172.279 125.511 168.696 125.925 164.948C126.325 161.299 125.863 154.967 124.855 150.443C122.021 137.691 119.376 130.157 115.531 123.799C111.879 117.788 108.302 114.277 103.195 111.738C101.761 111.022 99.0531 110.029 97.4683 109.638Z" fill="#FEE9C6"/>
<path d="M336.744 57.1366C328.626 56.3126 320.567 60.4822 314.552 68.5991C311.722 72.4182 309.291 77.532 308.39 81.5571C306.6 89.5071 308.199 96.7809 312.718 101.366C314.253 102.915 315.938 104.031 317.703 104.643C319.111 105.131 320.437 105.313 322.048 105.247C331.772 104.835 340.675 98.2627 345.758 87.741C346.647 85.8865 347.897 82.1097 348.397 79.7501C349.144 76.2382 349.273 74.2704 348.932 71.5502C348.399 67.2825 346.811 63.7135 344.259 61.094C342.717 59.4959 341.309 58.5682 339.232 57.7676C338.056 57.3252 337.733 57.2366 336.744 57.1366Z" fill="#FFF2D1"/>
<path d="M292.792 44.7725C288.24 44.0508 283.222 45.8972 279.219 49.7725C275.467 53.3992 272.714 59.3732 271.619 66.2686C270.22 75.0597 272.099 83.5293 276.818 89.6757C277.856 91.0298 279.707 92.886 281.049 93.906C281.999 94.6285 282.258 94.7645 283.427 95.2276C284.982 95.8358 286.156 96.0809 287.683 96.1242C290.049 96.1923 292.158 95.7435 294.355 94.7008C298.708 92.6353 302.389 88.533 304.827 83.028C305.825 80.7599 306.817 77.2177 307.243 74.3235C308.811 63.8562 306.076 54.2571 299.91 48.6158C297.506 46.4178 295.155 45.1521 292.792 44.7725Z" fill="#FFF2D1"/>
<path d="M357.506 100.826C350.17 99.5446 342.409 102.14 336.143 107.996C333.169 110.77 331.207 113.375 329.046 117.403C328.271 118.858 328.029 119.421 327.42 121.177C326.676 123.324 326.434 124.432 326.284 126.323C325.879 131.399 327.413 136.175 330.371 139.085C331.986 140.674 333.633 141.627 335.68 142.139C340.646 143.398 345.684 142.75 350.854 140.193C356.553 137.368 361.507 132.446 364.61 126.547C365.392 125.072 366.616 122.084 366.976 120.809C368.816 114.241 367.261 107.387 363.09 103.629C361.474 102.178 359.491 101.178 357.506 100.826Z" fill="#FFF2D1"/>
<path d="M252.879 67.8193C248.047 66.989 243.113 68.7953 240.256 72.4546C239.244 73.7461 238.097 75.6966 237.256 77.5449C234.204 84.2478 233.978 92.8788 236.647 100.292C237.236 101.919 238.57 104.625 239.519 106.064C241.698 109.422 244.726 112.333 247.87 114.128C248.706 114.603 250.825 115.314 251.74 115.423C255.792 115.925 259.87 114.447 262.969 111.346C264.877 109.44 266.458 106.714 267.649 103.276C268.383 101.159 268.679 99.9658 268.98 97.8728C270.16 89.8155 267.936 81.1219 263.073 74.7757C261.747 73.0324 259.721 70.9655 258.519 70.1209C257.013 69.067 254.734 68.1383 252.879 67.8193Z" fill="#FFF2D1"/>
<path d="M298.304 104.842C294.508 103.977 290.56 103.685 286.465 103.989C280.203 104.467 273.585 106.581 268.71 109.68C258.187 116.373 249.638 124.606 244.372 133.109C244.049 133.633 243.531 134.414 243.227 134.852C241.653 137.117 240.781 140.007 240.833 142.812C240.915 147.328 243.022 151.54 246.511 154.206C248.597 155.797 252.12 157.006 256.319 157.559C259.051 157.928 261.171 157.991 267.276 157.898C275.776 157.756 278.05 157.954 283.286 159.248C285.627 159.828 286.04 159.96 287.567 160.616C291.473 162.282 294.339 164.235 299.568 168.777C304.2 172.799 306.801 175.008 307.486 175.476C314.321 180.205 322.732 180.217 327.249 175.502C329.229 173.424 330.747 169.451 331.122 165.313C331.482 161.285 330.826 154.315 329.605 149.347C326.173 135.342 323.068 127.084 318.659 120.143C314.472 113.579 310.425 109.771 304.703 107.06C303.097 106.295 300.07 105.246 298.304 104.842Z" fill="#FFF2D1"/>
<path d="M486.313 8.65643C478.809 11.8624 473.773 19.4104 472.435 29.4238C471.806 34.1353 472.152 39.7871 473.311 43.7456C475.59 51.5694 480.508 57.1621 486.681 58.9885C488.774 59.6024 490.788 59.7641 492.629 59.4455C494.097 59.1915 495.346 58.7093 496.724 57.8718C505.035 52.8072 509.648 42.7482 509.006 31.081C508.888 29.0276 508.155 25.1174 507.451 22.8104C506.405 19.3757 505.566 17.5912 503.952 15.375C501.421 11.898 498.305 9.54258 494.804 8.48479C492.682 7.8316 491 7.70113 488.796 8.00497C487.552 8.18692 487.227 8.26534 486.313 8.65643Z" fill="#FEE9C6"/>
<path d="M441.865 19.0974C437.532 20.6679 434.034 24.7114 432.405 30.0394C430.876 35.0287 431.356 41.5888 433.733 48.1535C436.762 56.5242 442.503 63.028 449.607 66.1241C451.17 66.8075 453.689 67.5362 455.356 67.78C456.537 67.9528 456.83 67.9465 458.077 67.7861C459.732 67.5663 460.878 67.2127 462.236 66.512C464.339 65.4272 465.968 64.0141 467.387 62.0385C470.197 58.1252 471.434 52.7539 470.904 46.7568C470.681 44.2891 469.835 40.7089 468.808 37.9697C465.117 28.0502 458.08 20.972 449.955 19.0175C446.787 18.2569 444.117 18.2863 441.865 19.0974Z" fill="#FEE9C6"/>
<path d="M525.621 36.8487C518.581 39.2758 513.044 45.3023 510.392 53.458C509.131 57.325 508.674 60.5538 508.732 65.1243C508.757 66.7724 508.818 67.383 509.135 69.2136C509.522 71.4534 509.846 72.5398 510.63 74.2673C512.73 78.9058 516.384 82.3439 520.38 83.4601C522.562 84.0696 524.465 84.1064 526.504 83.565C531.459 82.264 535.555 79.2595 538.843 74.5205C542.464 69.2913 544.419 62.587 544.281 55.9231C544.252 54.2535 543.878 51.0466 543.576 49.7569C542.009 43.1184 537.332 37.8722 531.864 36.6002C529.748 36.1124 527.528 36.1971 525.621 36.8487Z" fill="#FEE9C6"/>
<path d="M418.082 58.5745C413.452 60.1854 410.008 64.1529 409.277 68.7377C409.016 70.3578 408.956 72.6196 409.114 74.6439C409.685 81.987 413.663 89.6499 419.585 94.8472C420.888 95.9858 423.364 97.7089 424.891 98.5095C428.422 100.394 432.481 101.477 436.101 101.527C437.062 101.538 439.261 101.136 440.115 100.788C443.903 99.2678 446.758 96.0012 447.97 91.7877C448.718 89.1962 448.782 86.0464 448.162 82.4606C447.78 80.2531 447.461 79.066 446.713 77.0883C443.848 69.4657 437.695 62.9332 430.37 59.7312C428.366 58.8469 425.593 58.018 424.132 57.8604C422.304 57.6665 419.86 57.9564 418.082 58.5745Z" fill="#FEE9C6"/>
<path d="M475.748 69.004C472.008 70.0838 468.411 71.7375 464.974 73.9847C459.725 77.4328 454.956 82.4835 452.188 87.554C446.216 98.5024 442.716 109.844 442.221 119.833C442.192 120.448 442.117 121.382 442.062 121.913C441.781 124.656 442.415 127.608 443.818 130.038C446.075 133.95 449.956 136.617 454.3 137.263C456.894 137.646 460.563 137 464.505 135.453C467.075 134.454 468.961 133.484 474.259 130.449C481.629 126.212 483.715 125.286 488.924 123.885C491.253 123.26 491.679 123.176 493.332 123.012C497.557 122.58 501.01 122.903 507.784 124.348C513.783 125.628 517.128 126.303 517.954 126.382C526.224 127.213 533.591 123.155 535.264 116.843C535.991 114.067 535.398 109.855 533.724 106.052C532.091 102.353 528.144 96.5701 524.673 92.8122C514.894 82.2158 508.181 76.49 500.965 72.5483C494.125 68.8297 488.741 67.4545 482.422 67.8493C480.646 67.9569 477.49 68.503 475.748 69.004Z" fill="#FEE9C6"/>
<path d="M86.1836 201.053C78.6802 204.259 73.6437 211.807 72.3065 221.82C71.6772 226.532 72.0231 232.184 73.1821 236.142C75.4613 243.966 80.3791 249.559 86.5525 251.385C88.645 251.999 90.6593 252.161 92.5002 251.842C93.9686 251.588 95.2169 251.106 96.5956 250.268C104.906 245.204 109.519 235.145 108.877 223.478C108.759 221.424 108.026 217.514 107.322 215.207C106.276 211.772 105.437 209.988 103.824 207.771C101.292 204.295 98.1758 201.939 94.6747 200.881C92.5528 200.228 90.8712 200.098 88.6666 200.401C87.4228 200.583 87.0978 200.662 86.1836 201.053Z" fill="#FEE9C6"/>
<path d="M41.7362 211.494C37.4033 213.064 33.9046 217.108 32.2759 222.436C30.7466 227.425 31.2272 233.985 33.6045 240.55C36.633 248.921 42.3743 255.425 49.4784 258.521C51.0412 259.204 53.5599 259.933 55.2273 260.177C56.4083 260.349 56.7007 260.343 57.9482 260.183C59.6031 259.963 60.7495 259.609 62.1067 258.909C64.21 257.824 65.8389 256.411 67.2577 254.435C70.0679 250.522 71.3054 245.15 70.7755 239.153C70.5517 236.686 69.7065 233.105 68.6795 230.366C64.988 220.447 57.9511 213.368 49.8256 211.414C46.6581 210.653 43.9884 210.683 41.7362 211.494Z" fill="#FEE9C6"/>
<path d="M125.492 229.245C118.452 231.672 112.915 237.699 110.263 245.854C109.003 249.721 108.546 252.95 108.603 257.521C108.628 259.169 108.689 259.78 109.006 261.61C109.393 263.85 109.717 264.936 110.501 266.664C112.601 271.302 116.255 274.74 120.251 275.857C122.433 276.466 124.336 276.503 126.375 275.962C131.33 274.66 135.426 271.656 138.714 266.917C142.335 261.688 144.29 254.984 144.152 248.32C144.123 246.65 143.749 243.443 143.447 242.153C141.88 235.515 137.203 230.269 131.735 228.997C129.619 228.509 127.399 228.594 125.492 229.245Z" fill="#FEE9C6"/>
<path d="M17.9535 250.971C13.3229 252.582 9.87879 256.549 9.14852 261.134C8.88713 262.754 8.82706 265.016 8.98549 267.04C9.55636 274.383 13.5345 282.046 19.456 287.244C20.759 288.382 23.2354 290.105 24.762 290.906C28.2933 292.79 32.3518 293.874 35.9719 293.924C36.9332 293.935 39.1319 293.532 39.986 293.185C43.7745 291.664 46.6289 288.398 47.841 284.184C48.5889 281.593 48.6533 278.443 48.0328 274.857C47.6508 272.65 47.3326 271.462 46.5841 269.485C43.719 261.862 37.5664 255.33 30.2408 252.128C28.2369 251.243 25.4639 250.415 24.0033 250.257C22.1753 250.063 19.7313 250.353 17.9535 250.971Z" fill="#FEE9C6"/>
<path d="M75.6193 261.4C71.8787 262.48 68.2825 264.134 64.8454 266.381C59.596 269.829 54.827 274.88 52.059 279.95C46.0872 290.899 42.5873 302.24 42.0925 312.23C42.0635 312.845 41.988 313.778 41.9331 314.309C41.6517 317.053 42.2865 320.004 43.6889 322.434C45.9459 326.347 49.827 329.014 54.1709 329.659C56.7652 330.042 60.4342 329.396 64.3761 327.849C66.9457 326.85 68.832 325.88 74.1303 322.845C81.5005 318.609 83.5861 317.682 88.7948 316.282C91.1244 315.657 91.5499 315.572 93.2031 315.408C97.4284 314.977 100.881 315.3 107.655 316.745C113.654 318.025 116.999 318.699 117.825 318.778C126.095 319.61 133.462 315.551 135.135 309.239C135.862 306.463 135.269 302.251 133.595 298.449C131.962 294.75 128.016 288.967 124.544 285.209C114.765 274.612 108.052 268.887 100.836 264.945C93.9964 261.226 88.6121 259.851 82.2926 260.246C80.5168 260.353 77.3609 260.899 75.6193 261.4Z" fill="#FEE9C6"/>
<path d="M339.866 259.293C332.565 258.433 325.223 262.104 319.651 269.384C317.029 272.809 314.743 277.414 313.856 281.053C312.095 288.24 313.401 294.861 317.389 299.083C318.744 300.51 320.241 301.545 321.821 302.125C323.081 302.587 324.273 302.77 325.727 302.732C334.498 302.493 342.646 296.654 347.422 287.18C348.259 285.51 349.456 282.101 349.95 279.968C350.688 276.792 350.841 275.009 350.585 272.537C350.183 268.658 348.818 265.398 346.566 262.987C345.207 261.516 343.954 260.655 342.098 259.9C341.045 259.482 340.756 259.397 339.866 259.293Z" fill="#FEE9C6"/>
<path d="M300.481 247.468C296.391 246.751 291.834 248.356 288.154 251.816C284.705 255.054 282.112 260.435 280.997 266.675C279.573 274.631 281.109 282.34 285.249 287.981C286.158 289.224 287.793 290.933 288.983 291.877C289.826 292.546 290.057 292.673 291.102 293.109C292.492 293.682 293.546 293.921 294.922 293.981C297.053 294.076 298.962 293.698 300.962 292.782C304.924 290.969 308.318 287.298 310.618 282.338C311.559 280.294 312.519 277.095 312.957 274.475C314.565 265.002 312.278 256.256 306.826 251.053C304.699 249.026 302.604 247.845 300.481 247.468Z" fill="#FEE9C6"/>
<path d="M357.772 299.213C351.184 297.949 344.141 300.197 338.384 305.422C335.652 307.897 333.835 310.233 331.812 313.857C331.087 315.166 330.858 315.674 330.277 317.258C329.566 319.196 329.327 320.197 329.157 321.911C328.697 326.509 329.991 330.864 332.603 333.545C334.029 335.008 335.496 335.895 337.332 336.389C341.784 337.599 346.338 337.081 351.045 334.833C356.234 332.349 360.791 327.953 363.698 322.645C364.43 321.317 365.589 318.623 365.937 317.472C367.718 311.54 366.443 305.3 362.754 301.833C361.324 300.495 359.555 299.56 357.772 299.213Z" fill="#FEE9C6"/>
<path d="M264.078 267.823C259.739 267.003 255.258 268.573 252.615 271.853C251.678 273.011 250.608 274.764 249.816 276.429C246.94 282.468 246.577 290.294 248.844 297.056C249.345 298.54 250.497 301.013 251.326 302.332C253.227 305.408 255.903 308.091 258.703 309.763C259.448 310.205 261.345 310.88 262.168 310.991C265.81 311.502 269.514 310.218 272.365 307.448C274.12 305.745 275.595 303.294 276.733 300.191C277.433 298.281 277.722 297.203 278.033 295.309C279.246 288.016 277.403 280.099 273.138 274.275C271.975 272.675 270.187 270.772 269.119 269.989C267.782 269.012 265.744 268.138 264.078 267.823Z" fill="#FEE9C6"/>
<path d="M304.332 302.036C300.926 301.199 297.373 300.879 293.677 301.099C288.023 301.446 282.019 303.271 277.567 306.015C267.958 311.941 260.099 319.291 255.195 326.932C254.894 327.403 254.413 328.104 254.13 328.497C252.67 330.53 251.83 333.14 251.825 335.685C251.815 339.783 253.636 343.633 256.731 346.1C258.581 347.572 261.735 348.718 265.509 349.277C267.965 349.649 269.874 349.737 275.379 349.737C283.043 349.725 285.089 349.936 289.784 351.183C291.884 351.741 292.254 351.866 293.617 352.483C297.108 354.048 299.654 355.86 304.283 360.052C308.383 363.765 310.687 365.804 311.295 366.239C317.368 370.623 324.95 370.75 329.109 366.536C330.932 364.678 332.374 361.095 332.789 357.346C333.188 353.698 332.726 347.365 331.718 342.841C328.885 330.09 326.239 322.555 322.394 316.198C318.742 310.186 315.165 306.675 310.058 304.136C308.625 303.42 305.916 302.427 304.332 302.036Z" fill="#FEE9C6"/>
<path d="M543.607 249.535C535.489 248.711 527.43 252.881 521.416 260.998C518.586 264.817 516.154 269.93 515.254 273.956C513.464 281.906 515.062 289.179 519.582 293.764C521.116 295.314 522.801 296.43 524.566 297.042C525.974 297.529 527.3 297.711 528.912 297.645C538.635 297.233 547.539 290.661 552.621 280.139C553.511 278.285 554.761 274.508 555.261 272.149C556.007 268.637 556.136 266.669 555.796 263.949C555.262 259.681 553.674 256.112 551.122 253.492C549.581 251.894 548.172 250.967 546.096 250.166C544.919 249.724 544.597 249.635 543.607 249.535Z" fill="#FFF2D1"/>
<path d="M499.655 237.171C495.103 236.449 490.085 238.296 486.082 242.171C482.33 245.798 479.577 251.772 478.482 258.667C477.083 267.458 478.962 275.928 483.682 282.074C484.719 283.428 486.571 285.284 487.912 286.304C488.862 287.027 489.121 287.163 490.29 287.626C491.845 288.234 493.02 288.479 494.546 288.523C496.912 288.591 499.021 288.142 501.219 287.099C505.571 285.034 509.253 280.931 511.69 275.426C512.688 273.158 513.68 269.616 514.106 266.722C515.674 256.255 512.94 246.656 506.774 241.014C504.369 238.816 502.019 237.551 499.655 237.171Z" fill="#FFF2D1"/>
<path d="M564.369 293.225C557.034 291.943 549.272 294.539 543.006 300.394C540.032 303.169 538.07 305.773 535.909 309.801C535.134 311.256 534.892 311.82 534.284 313.575C533.539 315.723 533.297 316.83 533.148 318.721C532.742 323.797 534.276 328.573 537.234 331.484C538.849 333.073 540.496 334.025 542.543 334.538C547.509 335.796 552.547 335.148 557.717 332.591C563.416 329.766 568.37 324.844 571.474 318.946C572.256 317.47 573.479 314.482 573.839 313.207C575.679 306.64 574.124 299.786 569.954 296.027C568.338 294.577 566.354 293.577 564.369 293.225Z" fill="#FFF2D1"/>
<path d="M459.742 260.218C454.91 259.387 449.976 261.194 447.119 264.853C446.107 266.145 444.96 268.095 444.12 269.943C441.067 276.646 440.842 285.277 443.51 292.69C444.099 294.317 445.433 297.023 446.382 298.463C448.561 301.82 451.589 304.732 454.733 306.527C455.569 307.001 457.688 307.713 458.604 307.822C462.655 308.324 466.733 306.846 469.833 303.744C471.741 301.838 473.321 299.112 474.513 295.674C475.246 293.557 475.542 292.364 475.843 290.271C477.023 282.214 474.799 273.52 469.936 267.174C468.61 265.431 466.584 263.364 465.382 262.519C463.876 261.465 461.597 260.537 459.742 260.218Z" fill="#FFF2D1"/>
<path d="M505.167 297.24C501.371 296.376 497.424 296.083 493.328 296.388C487.066 296.866 480.449 298.979 475.573 302.078C465.05 308.771 456.501 317.004 451.235 325.507C450.912 326.032 450.395 326.812 450.09 327.25C448.516 329.515 447.644 332.405 447.696 335.211C447.779 339.727 449.885 343.938 453.375 346.605C455.46 348.195 458.984 349.405 463.182 349.957C465.914 350.326 468.034 350.39 474.139 350.297C482.639 350.154 484.913 350.352 490.149 351.647C492.49 352.227 492.904 352.358 494.43 353.014C498.337 354.681 501.202 356.634 506.431 361.175C511.063 365.198 513.664 367.406 514.349 367.875C521.184 372.603 529.595 372.615 534.113 367.9C536.092 365.822 537.61 361.849 537.985 357.711C538.345 353.684 537.689 346.713 536.468 341.745C533.036 327.74 529.931 319.482 525.522 312.541C521.335 305.978 517.288 302.17 511.566 299.458C509.96 298.693 506.934 297.644 505.167 297.24Z" fill="#FFF2D1"/>
<path d="M143.478 430.687C135.361 429.863 127.301 434.033 121.287 442.15C118.457 445.969 116.025 451.083 115.125 455.108C113.335 463.058 114.933 470.332 119.453 474.917C120.987 476.466 122.672 477.582 124.437 478.194C125.845 478.682 127.171 478.864 128.783 478.798C138.506 478.385 147.41 471.813 152.492 461.292C153.382 459.437 154.632 455.661 155.132 453.301C155.878 449.789 156.007 447.821 155.667 445.101C155.133 440.833 153.545 437.264 150.993 434.645C149.452 433.047 148.043 432.119 145.967 431.318C144.79 430.876 144.468 430.787 143.478 430.687Z" fill="#FFF2D1"/>
<path d="M99.5263 418.323C94.9744 417.602 89.9563 419.448 85.9534 423.323C82.2014 426.95 79.4484 432.924 78.3534 439.819C76.9545 448.61 78.833 457.08 83.5528 463.226C84.59 464.581 86.4418 466.437 87.7831 467.457C88.7332 468.179 88.9921 468.315 90.1616 468.778C91.7162 469.387 92.8906 469.632 94.4174 469.675C96.783 469.743 98.8923 469.294 101.09 468.252C105.442 466.186 109.124 462.084 111.561 456.579C112.559 454.311 113.551 450.768 113.978 447.874C115.545 437.407 112.811 427.808 106.645 422.167C104.241 419.969 101.89 418.703 99.5263 418.323Z" fill="#FFF2D1"/>
<path d="M164.24 474.377C156.905 473.095 149.144 475.691 142.877 481.546C139.903 484.321 137.941 486.926 135.78 490.954C135.006 492.408 134.763 492.972 134.155 494.727C133.41 496.875 133.168 497.982 133.019 499.874C132.613 504.949 134.147 509.726 137.105 512.636C138.72 514.225 140.367 515.178 142.414 515.69C147.38 516.949 152.418 516.301 157.589 513.744C163.287 510.919 168.241 505.997 171.345 500.098C172.127 498.623 173.351 495.635 173.71 494.36C175.551 487.792 173.995 480.938 169.825 477.18C168.209 475.729 166.225 474.729 164.24 474.377Z" fill="#FFF2D1"/>
<path d="M59.6132 441.37C54.7812 440.54 49.8476 442.346 46.9905 446.005C45.978 447.297 44.8313 449.247 43.9906 451.096C40.938 457.799 40.7127 466.43 43.381 473.843C43.9706 475.47 45.3043 478.176 46.2532 479.615C48.4322 482.972 51.4601 485.884 54.6042 487.679C55.4401 488.154 57.5593 488.865 58.4748 488.974C62.5261 489.476 66.6045 487.998 69.7036 484.897C71.6118 482.99 73.192 480.265 74.3836 476.826C75.1172 474.709 75.4129 473.517 75.7145 471.424C76.8945 463.366 74.6699 454.673 69.8075 448.327C68.4815 446.583 66.4555 444.516 65.2535 443.672C63.7474 442.618 61.4681 441.689 59.6132 441.37Z" fill="#FFF2D1"/>
<path d="M105.038 478.393C101.242 477.528 97.2946 477.236 93.1994 477.54C86.937 478.018 80.3198 480.132 75.4444 483.23C64.9215 489.923 56.3719 498.156 51.1063 506.66C50.7834 507.184 50.2658 507.965 49.961 508.403C48.3874 510.668 47.5153 513.558 47.5671 516.363C47.6497 520.879 49.7563 525.091 53.2457 527.757C55.331 529.347 58.8546 530.557 63.0531 531.11C65.7853 531.478 67.9052 531.542 74.0106 531.449C82.5104 531.307 84.7839 531.505 90.0201 532.799C92.3613 533.379 92.7747 533.511 94.3009 534.167C98.2077 535.833 101.073 537.786 106.302 542.328C110.934 546.35 113.535 548.559 114.22 549.027C121.055 553.756 129.466 553.767 133.984 549.053C135.963 546.974 137.482 543.001 137.856 538.863C138.216 534.836 137.56 527.866 136.34 522.897C132.907 508.893 129.802 500.634 125.393 493.693C121.206 487.13 117.159 483.322 111.437 480.61C109.831 479.846 106.805 478.797 105.038 478.393Z" fill="#FFF2D1"/>
<path d="M293.047 382.207C285.544 385.413 280.507 392.961 279.17 402.975C278.54 407.686 278.886 413.338 280.045 417.296C282.325 425.12 287.242 430.713 293.416 432.539C295.508 433.153 297.523 433.315 299.364 432.996C300.832 432.742 302.08 432.26 303.459 431.423C311.769 426.358 316.383 416.299 315.741 404.632C315.622 402.578 314.889 398.668 314.185 396.361C313.14 392.927 312.3 391.142 310.687 388.926C308.155 385.449 305.039 383.093 301.538 382.036C299.416 381.382 297.735 381.252 295.53 381.556C294.286 381.738 293.961 381.816 293.047 382.207Z" fill="#FEE9C6"/>
<path d="M248.599 392.648C244.267 394.219 240.768 398.262 239.139 403.59C237.61 408.579 238.09 415.14 240.468 421.704C243.496 430.075 249.238 436.579 256.342 439.675C257.905 440.358 260.423 441.087 262.091 441.331C263.272 441.504 263.564 441.497 264.811 441.337C266.466 441.117 267.613 440.763 268.97 440.063C271.073 438.978 272.702 437.565 274.121 435.589C276.931 431.676 278.169 426.305 277.639 420.308C277.415 417.84 276.57 414.26 275.543 411.52C271.851 401.601 264.814 394.523 256.689 392.568C253.521 391.808 250.852 391.837 248.599 392.648Z" fill="#FEE9C6"/>
<path d="M332.355 410.4C325.315 412.827 319.778 418.853 317.127 427.009C315.866 430.876 315.409 434.105 315.466 438.675C315.492 440.323 315.552 440.934 315.869 442.764C316.256 445.004 316.58 446.091 317.364 447.818C319.465 452.457 323.118 455.895 327.114 457.011C329.297 457.62 331.199 457.657 333.238 457.116C338.193 455.815 342.289 452.81 345.577 448.071C349.198 442.842 351.153 436.138 351.016 429.474C350.986 427.804 350.612 424.597 350.31 423.308C348.744 416.669 344.066 411.423 338.598 410.151C336.483 409.663 334.263 409.748 332.355 410.4Z" fill="#FEE9C6"/>
<path d="M224.817 432.125C220.186 433.736 216.742 437.704 216.012 442.288C215.75 443.909 215.69 446.17 215.849 448.195C216.42 455.538 220.398 463.201 226.319 468.398C227.622 469.537 230.099 471.26 231.625 472.06C235.157 473.945 239.215 475.028 242.835 475.078C243.796 475.089 245.995 474.687 246.849 474.339C250.638 472.819 253.492 469.552 254.704 465.339C255.452 462.747 255.517 459.597 254.896 456.011C254.514 453.804 254.196 452.617 253.447 450.639C250.582 443.016 244.43 436.484 237.104 433.282C235.1 432.398 232.327 431.569 230.867 431.411C229.039 431.217 226.595 431.507 224.817 432.125Z" fill="#FEE9C6"/>
<path d="M282.483 442.555C278.742 443.635 275.146 445.288 271.709 447.535C266.459 450.984 261.69 456.034 258.922 461.105C252.95 472.053 249.451 483.395 248.956 493.384C248.927 493.999 248.851 494.933 248.796 495.463C248.515 498.207 249.15 501.158 250.552 503.589C252.809 507.501 256.69 510.168 261.034 510.814C263.629 511.197 267.298 510.551 271.239 509.003C273.809 508.004 275.695 507.035 280.994 504C288.364 499.763 290.449 498.837 295.658 497.436C297.988 496.811 298.413 496.727 300.066 496.563C304.292 496.131 307.745 496.454 314.518 497.899C320.518 499.179 323.862 499.854 324.688 499.932C332.958 500.764 340.325 496.705 341.998 490.394C342.725 487.617 342.132 483.406 340.458 479.603C338.825 475.904 334.879 470.121 331.407 466.363C321.628 455.767 314.916 450.041 307.699 446.099C300.86 442.38 295.475 441.005 289.156 441.4C287.38 441.508 284.224 442.054 282.483 442.555Z" fill="#FEE9C6"/>
<path d="M546.726 440.445C539.424 439.585 532.082 443.256 526.511 450.536C523.889 453.961 521.602 458.567 520.716 462.206C518.955 469.393 520.26 476.013 524.249 480.235C525.603 481.662 527.101 482.697 528.68 483.277C529.94 483.739 531.132 483.922 532.586 483.885C541.358 483.645 549.505 477.807 554.282 468.332C555.118 466.662 556.315 463.254 556.809 461.12C557.547 457.945 557.7 456.161 557.444 453.689C557.042 449.81 555.677 446.551 553.425 444.139C552.066 442.668 550.814 441.807 548.957 441.052C547.905 440.634 547.616 440.549 546.726 440.445Z" fill="#FEE9C6"/>
<path d="M507.34 428.62C503.251 427.903 498.693 429.508 495.013 432.968C491.564 436.207 488.972 441.588 487.857 447.828C486.432 455.783 487.968 463.492 492.108 469.133C493.018 470.376 494.653 472.086 495.843 473.029C496.686 473.698 496.916 473.825 497.962 474.261C499.352 474.834 500.406 475.073 501.781 475.133C503.912 475.228 505.822 474.85 507.822 473.934C511.783 472.121 515.178 468.451 517.477 463.49C518.419 461.447 519.379 458.247 519.817 455.628C521.424 446.154 519.138 437.408 513.685 432.205C511.559 430.178 509.463 428.998 507.34 428.62Z" fill="#FEE9C6"/>
<path d="M564.632 480.366C558.044 479.102 551 481.349 545.243 486.574C542.511 489.05 540.694 491.385 538.672 495.009C537.946 496.318 537.717 496.826 537.136 498.41C536.425 500.348 536.186 501.349 536.017 503.063C535.557 507.662 536.851 512.016 539.463 514.697C540.889 516.161 542.356 517.048 544.191 517.541C548.644 518.751 553.197 518.233 557.905 515.985C563.094 513.501 567.651 509.105 570.557 503.797C571.29 502.469 572.448 499.776 572.796 498.624C574.577 492.692 573.302 486.453 569.613 482.985C568.184 481.647 566.414 480.713 564.632 480.366Z" fill="#FEE9C6"/>
<path d="M470.938 448.975C466.598 448.155 462.117 449.726 459.474 453.006C458.538 454.163 457.468 455.917 456.676 457.582C453.8 463.62 453.436 471.446 455.704 478.208C456.205 479.692 457.357 482.166 458.185 483.484C460.087 486.56 462.762 489.243 465.563 490.915C466.307 491.357 468.204 492.032 469.027 492.143C472.67 492.655 476.373 491.37 479.224 488.6C480.979 486.897 482.454 484.447 483.592 481.344C484.293 479.434 484.582 478.356 484.892 476.461C486.106 469.168 484.262 461.251 479.997 455.427C478.834 453.827 477.047 451.924 475.979 451.141C474.641 450.164 472.604 449.29 470.938 448.975Z" fill="#FEE9C6"/>
<path d="M511.191 483.188C507.785 482.352 504.233 482.032 500.536 482.251C494.882 482.598 488.879 484.424 484.427 487.167C474.818 493.093 466.959 500.443 462.054 508.084C461.754 508.556 461.273 509.256 460.99 509.65C459.529 511.683 458.69 514.292 458.684 516.838C458.675 520.936 460.495 524.785 463.591 527.253C465.441 528.724 468.594 529.87 472.368 530.43C474.824 530.802 476.734 530.889 482.239 530.889C489.903 530.877 491.948 531.088 496.644 532.335C498.743 532.894 499.113 533.019 500.477 533.635C503.967 535.201 506.514 537.012 511.142 541.204C515.243 544.917 517.546 546.957 518.155 547.391C524.228 551.775 531.809 551.902 535.968 547.688C537.791 545.83 539.233 542.247 539.648 538.498C540.047 534.85 539.585 528.518 538.578 523.994C535.744 511.242 533.099 503.707 529.254 497.35C525.602 491.338 522.024 487.828 516.918 485.289C515.484 484.573 512.776 483.579 511.191 483.188Z" fill="#FEE9C6"/>
</svg>
