<svg viewBox="0 0 109 107" fill="none" xmlns="http://www.w3.org/2000/svg">
    <path d="M14.04 87.2441C29.9398 108.432 61.1201 103.19 68.3473 76.7593C68.7603 75.4487 68.9668 73.9197 69.1733 72.6091C52.4474 68.6773 36.1346 55.7898 34.6891 40.2811C33.4502 26.3014 46.8722 22.1512 55.7513 30.0148C66.2824 39.4074 73.7161 53.1686 74.3356 67.8033C85.0731 69.3323 95.6042 66.2742 101.386 55.1342C111.091 36.3493 98.0821 11.0108 80.7368 3.5841C78.8784 2.9288 79.7044 -0.129257 81.5628 0.526041C105.516 7.73467 117.905 43.1207 101.592 64.0899C95.1912 72.1723 84.8667 74.7931 74.1291 73.4825C72.6836 88.3359 61.7396 100.131 48.7309 104.718C33.657 109.961 19.8221 102.316 10.9429 89.8649C9.49715 87.899 12.5949 85.4966 14.04 87.2441ZM60.2941 43.1207C56.9903 38.3152 52.6539 32.8544 47.0787 30.8885C41.7102 28.9226 39.8514 36.7862 39.6453 40.2811C39.4388 44.6498 42.3297 48.5815 45.0141 51.6396C50.589 58.4107 59.8811 64.3087 69.3798 66.9295C68.7603 58.4107 64.8369 50.1106 60.2941 43.1207Z"
          fill="currentColor"/>
    <path d="M2.4761 79.1621C8.25786 79.1621 14.2461 79.599 19.8214 81.128C22.0925 81.7833 21.0604 85.0598 18.7886 84.6229C14.2458 83.7492 9.49648 83.9676 4.95366 84.1861C5.16016 87.0253 5.36665 90.0834 5.77963 92.923C6.19261 95.1073 7.63806 98.3838 6.39911 100.568C5.77963 101.661 4.74717 101.661 3.71471 101.223C1.23681 100.131 1.23682 95.5442 0.823832 93.1414C0.204357 89.2093 -0.00180435 85.4963 -0.00180435 81.5642C-0.00180435 80.2543 1.23714 79.1621 2.4761 79.1621Z"
          fill="currentColor"/>
</svg>
