<svg viewBox="0 0 248 27" xmlns="http://www.w3.org/2000/svg">
    <path d="M211.024 7.51872C217.142 8.46037 223.643 10.1064 231.557 12.7078C232.051 12.0645 240.658 14.8333 240.835 14.676C241.122 14.3882 248.604 17.6724 246.925 20.7064C244.157 20.428 238.72 21.1141 235.016 20.1568C233.605 19.7921 230.192 18.7319 227.43 17.8088C224.669 16.8857 220.352 15.5389 217.864 14.824C213.881 13.6946 212.758 13.4479 208.702 12.8052C200.318 11.4964 197.141 11.9111 192.472 14.9366C185.665 19.3853 183.03 20.4553 178.551 20.5959C174.652 20.7336 171.255 19.971 159.375 16.3349C146.911 12.5168 141.919 11.6008 135.66 12.0023C131.685 12.239 128.329 13.032 124.259 14.7112C122.273 15.5306 119.481 16.8346 118.081 17.6151C113.656 20.0327 111.073 20.9631 107.047 21.5423C103.333 22.0772 101.941 21.9921 94.3633 20.8074C83.4106 19.1216 75.4178 17.2459 61.8794 13.2624C52.6414 10.531 48.8729 9.60054 45.5982 9.24407C40.1584 8.66503 34.6752 8.78017 28.9614 9.61604C21.4379 10.7083 15.9845 12.2482 7.85059 15.5704C3.42548 17.3793 2.17202 17.795 1.54529 17.6986C-0.185667 17.4321 -0.348433 16.282 1.20349 15.1007C5.14026 12.0731 13.9742 8.56352 22.1597 6.72476C28.7308 5.26464 36.9651 4.5216 43.1456 4.84576C48.5989 5.13178 54.093 6.1618 63.0652 8.63095C75.6485 12.0617 82.6401 13.6911 92.2798 15.3776C102.752 17.2108 104.774 16.9686 112.37 12.9551C121.956 7.9012 129.648 6.09709 139.651 6.58541C145.959 6.87386 151.366 8.075 165.42 12.2854C171.79 14.1881 175.062 14.9683 176.714 14.946C178.671 14.9335 182.238 13.3431 186.444 10.5597C192.068 6.86969 200.251 5.8605 211.024 7.51872Z"
          fill="currentColor"/>
</svg>
