<svg width="170" height="162" viewBox="0 0 170 162" fill="none" xmlns="http://www.w3.org/2000/svg">
<path d="M122.736 29.4345C114.618 28.6105 106.559 32.7801 100.545 40.8969C97.7146 44.716 95.2833 49.8299 94.3827 53.855C92.5926 61.805 94.1912 69.0788 98.7106 73.6637C100.245 75.2133 101.93 76.3291 103.695 76.9409C105.103 77.4289 106.429 77.6107 108.04 77.5448C117.764 77.1324 126.668 70.5605 131.75 60.0388C132.64 58.1844 133.89 54.4076 134.39 52.0479C135.136 48.5361 135.265 46.5682 134.925 43.848C134.391 39.5803 132.803 36.0114 130.251 33.3919C128.71 31.7937 127.301 30.8661 125.225 30.0655C124.048 29.623 123.726 29.5344 122.736 29.4345Z" fill="#D69458"/>
<path d="M78.7802 17.0703C74.2283 16.3487 69.2102 18.1951 65.2073 22.0703C61.4553 25.6971 58.7023 31.671 57.6073 38.5665C56.2084 47.3576 58.0869 55.8271 62.8067 61.9735C63.8439 63.3277 65.6957 65.1838 67.037 66.2039C67.9871 66.9264 68.246 67.0623 69.4155 67.5255C70.9701 68.1336 72.1445 68.3787 73.6713 68.4221C76.0369 68.4901 78.1462 68.0414 80.3436 66.9986C84.6962 64.9332 88.3776 60.8308 90.8151 55.3259C91.8129 53.0578 92.8051 49.5155 93.2314 46.6214C94.7993 36.154 92.0647 26.555 85.8988 20.9137C83.4945 18.7157 81.1438 17.4499 78.7802 17.0703Z" fill="#D69458"/>
<path d="M143.498 73.1239C136.163 71.8424 128.401 74.4383 122.135 80.2935C119.161 83.068 117.199 85.6727 115.038 89.7006C114.263 91.1554 114.021 91.7191 113.413 93.4744C112.668 95.6222 112.426 96.7294 112.276 98.6208C111.871 103.696 113.405 108.473 116.363 111.383C117.978 112.972 119.625 113.925 121.672 114.437C126.638 115.696 131.676 115.048 136.846 112.491C142.545 109.666 147.499 104.744 150.603 98.8451C151.385 97.3696 152.608 94.3818 152.968 93.1069C154.808 86.5392 153.253 79.6851 149.082 75.9267C147.467 74.4761 145.483 73.4763 143.498 73.1239Z" fill="#D69458"/>
<path d="M38.8749 40.1171C34.0429 39.2869 29.1093 41.0931 26.2522 44.7525C25.2397 46.044 24.093 47.9944 23.2524 49.8428C20.1997 56.5456 19.9744 65.1767 22.6427 72.5899C23.2323 74.2168 24.566 76.9228 25.5149 78.362C27.6939 81.7194 30.7218 84.6309 33.8659 86.4261C34.7018 86.9008 36.821 87.6121 37.7365 87.7212C41.7878 88.2231 45.8662 86.745 48.9653 83.6437C50.8736 81.7374 52.4537 79.0118 53.6453 75.5734C54.3789 73.4566 54.6746 72.2637 54.9763 70.1707C56.1562 62.1133 53.9316 53.4197 49.0692 47.0736C47.7432 45.3302 45.7172 43.2633 44.5152 42.4188C43.0091 41.3648 40.7299 40.4361 38.8749 40.1171Z" fill="#D69458"/>
<path d="M84.2921 77.1398C80.4959 76.2753 76.5485 75.9829 72.4533 76.287C66.1909 76.7653 59.5737 78.8787 54.6983 81.9774C44.1754 88.6705 35.6258 96.9034 30.3602 105.407C30.0373 105.931 29.5197 106.712 29.2149 107.15C27.6413 109.415 26.7692 112.305 26.821 115.11C26.9036 119.626 29.0102 123.838 32.4996 126.504C34.5849 128.094 38.1085 129.304 42.307 129.857C45.0392 130.225 47.1591 130.289 53.2645 130.196C61.7643 130.054 64.0378 130.252 69.274 131.546C71.6152 132.126 72.0286 132.258 73.5548 132.914C77.4616 134.58 80.3273 136.533 85.5561 141.075C90.1881 145.097 92.7888 147.306 93.4738 147.774C100.309 152.503 108.72 152.514 113.238 147.8C115.217 145.722 116.735 141.749 117.11 137.611C117.47 133.583 116.814 126.613 115.593 121.644C112.161 107.64 109.056 99.3814 104.647 92.4405C100.46 85.8773 96.4129 82.0691 90.6911 79.3575C89.0849 78.5926 86.0587 77.5439 84.2921 77.1398Z" fill="#D69458"/>
</svg>
